<?xml version="1.0" standalone="no"?>
<svg width="256" height="256" xmlns:xlink="http://www.w3.org/1999/xlink" viewBox="0 0 256 256" xmlns="http://www.w3.org/2000/svg"><defs><clipPath id="clip-path-background-color-0"><rect x="0" y="0" width="256" height="256"/></clipPath><clipPath id="clip-path-dot-color-0"><rect x="83" y="3" width="10" height="10" transform="rotate(0,88,8)"/><rect x="103" y="3" width="10" height="10" transform="rotate(0,108,8)"/><rect x="113" y="3" width="10" height="10" transform="rotate(0,118,8)"/><rect x="143" y="3" width="10" height="10" transform="rotate(0,148,8)"/><rect x="83" y="13" width="10" height="10" transform="rotate(0,88,18)"/><rect x="123" y="13" width="10" height="10" transform="rotate(0,128,18)"/><rect x="133" y="13" width="10" height="10" transform="rotate(0,138,18)"/><rect x="143" y="13" width="10" height="10" transform="rotate(0,148,18)"/><rect x="163" y="13" width="10" height="10" transform="rotate(0,168,18)"/><rect x="103" y="23" width="10" height="10" transform="rotate(0,108,28)"/><rect x="143" y="23" width="10" height="10" transform="rotate(0,148,28)"/><rect x="93" y="33" width="10" height="10" transform="rotate(0,98,38)"/><rect x="133" y="33" width="10" height="10" transform="rotate(0,138,38)"/><rect x="163" y="33" width="10" height="10" transform="rotate(0,168,38)"/><rect x="103" y="43" width="10" height="10" transform="rotate(0,108,48)"/><rect x="123" y="43" width="10" height="10" transform="rotate(0,128,48)"/><rect x="133" y="43" width="10" height="10" transform="rotate(0,138,48)"/><rect x="163" y="43" width="10" height="10" transform="rotate(0,168,48)"/><rect x="103" y="53" width="10" height="10" transform="rotate(0,108,58)"/><rect x="113" y="53" width="10" height="10" transform="rotate(0,118,58)"/><rect x="123" y="53" width="10" height="10" transform="rotate(0,128,58)"/><rect x="143" y="53" width="10" height="10" transform="rotate(0,148,58)"/><rect x="83" y="63" width="10" height="10" transform="rotate(0,88,68)"/><rect x="103" y="63" width="10" height="10" transform="rotate(0,108,68)"/><rect x="123" y="63" width="10" height="10" transform="rotate(0,128,68)"/><rect x="143" y="63" width="10" height="10" transform="rotate(0,148,68)"/><rect x="163" y="63" width="10" height="10" transform="rotate(0,168,68)"/><rect x="143" y="73" width="10" height="10" transform="rotate(0,148,78)"/><rect x="153" y="73" width="10" height="10" transform="rotate(0,158,78)"/><rect x="163" y="73" width="10" height="10" transform="rotate(0,168,78)"/><rect x="13" y="83" width="10" height="10" transform="rotate(0,18,88)"/><rect x="63" y="83" width="10" height="10" transform="rotate(0,68,88)"/><rect x="73" y="83" width="10" height="10" transform="rotate(0,78,88)"/><rect x="83" y="83" width="10" height="10" transform="rotate(0,88,88)"/><rect x="103" y="83" width="10" height="10" transform="rotate(0,108,88)"/><rect x="113" y="83" width="10" height="10" transform="rotate(0,118,88)"/><rect x="123" y="83" width="10" height="10" transform="rotate(0,128,88)"/><rect x="173" y="83" width="10" height="10" transform="rotate(0,178,88)"/><rect x="233" y="83" width="10" height="10" transform="rotate(0,238,88)"/><rect x="243" y="83" width="10" height="10" transform="rotate(0,248,88)"/><rect x="23" y="93" width="10" height="10" transform="rotate(0,28,98)"/><rect x="33" y="93" width="10" height="10" transform="rotate(0,38,98)"/><rect x="43" y="93" width="10" height="10" transform="rotate(0,48,98)"/><rect x="93" y="93" width="10" height="10" transform="rotate(0,98,98)"/><rect x="103" y="93" width="10" height="10" transform="rotate(0,108,98)"/><rect x="113" y="93" width="10" height="10" transform="rotate(0,118,98)"/><rect x="133" y="93" width="10" height="10" transform="rotate(0,138,98)"/><rect x="143" y="93" width="10" height="10" transform="rotate(0,148,98)"/><rect x="153" y="93" width="10" height="10" transform="rotate(0,158,98)"/><rect x="163" y="93" width="10" height="10" transform="rotate(0,168,98)"/><rect x="173" y="93" width="10" height="10" transform="rotate(0,178,98)"/><rect x="193" y="93" width="10" height="10" transform="rotate(0,198,98)"/><rect x="203" y="93" width="10" height="10" transform="rotate(0,208,98)"/><rect x="213" y="93" width="10" height="10" transform="rotate(0,218,98)"/><rect x="223" y="93" width="10" height="10" transform="rotate(0,228,98)"/><rect x="233" y="93" width="10" height="10" transform="rotate(0,238,98)"/><rect x="3" y="103" width="10" height="10" transform="rotate(0,8,108)"/><rect x="13" y="103" width="10" height="10" transform="rotate(0,18,108)"/><rect x="43" y="103" width="10" height="10" transform="rotate(0,48,108)"/><rect x="53" y="103" width="10" height="10" transform="rotate(0,58,108)"/><rect x="63" y="103" width="10" height="10" transform="rotate(0,68,108)"/><rect x="93" y="103" width="10" height="10" transform="rotate(0,98,108)"/><rect x="103" y="103" width="10" height="10" transform="rotate(0,108,108)"/><rect x="133" y="103" width="10" height="10" transform="rotate(0,138,108)"/><rect x="143" y="103" width="10" height="10" transform="rotate(0,148,108)"/><rect x="153" y="103" width="10" height="10" transform="rotate(0,158,108)"/><rect x="163" y="103" width="10" height="10" transform="rotate(0,168,108)"/><rect x="193" y="103" width="10" height="10" transform="rotate(0,198,108)"/><rect x="213" y="103" width="10" height="10" transform="rotate(0,218,108)"/><rect x="233" y="103" width="10" height="10" transform="rotate(0,238,108)"/><rect x="243" y="103" width="10" height="10" transform="rotate(0,248,108)"/><rect x="3" y="113" width="10" height="10" transform="rotate(0,8,118)"/><rect x="73" y="113" width="10" height="10" transform="rotate(0,78,118)"/><rect x="83" y="113" width="10" height="10" transform="rotate(0,88,118)"/><rect x="93" y="113" width="10" height="10" transform="rotate(0,98,118)"/><rect x="103" y="113" width="10" height="10" transform="rotate(0,108,118)"/><rect x="113" y="113" width="10" height="10" transform="rotate(0,118,118)"/><rect x="133" y="113" width="10" height="10" transform="rotate(0,138,118)"/><rect x="163" y="113" width="10" height="10" transform="rotate(0,168,118)"/><rect x="183" y="113" width="10" height="10" transform="rotate(0,188,118)"/><rect x="193" y="113" width="10" height="10" transform="rotate(0,198,118)"/><rect x="213" y="113" width="10" height="10" transform="rotate(0,218,118)"/><rect x="243" y="113" width="10" height="10" transform="rotate(0,248,118)"/><rect x="13" y="123" width="10" height="10" transform="rotate(0,18,128)"/><rect x="33" y="123" width="10" height="10" transform="rotate(0,38,128)"/><rect x="43" y="123" width="10" height="10" transform="rotate(0,48,128)"/><rect x="63" y="123" width="10" height="10" transform="rotate(0,68,128)"/><rect x="123" y="123" width="10" height="10" transform="rotate(0,128,128)"/><rect x="133" y="123" width="10" height="10" transform="rotate(0,138,128)"/><rect x="153" y="123" width="10" height="10" transform="rotate(0,158,128)"/><rect x="163" y="123" width="10" height="10" transform="rotate(0,168,128)"/><rect x="183" y="123" width="10" height="10" transform="rotate(0,188,128)"/><rect x="193" y="123" width="10" height="10" transform="rotate(0,198,128)"/><rect x="243" y="123" width="10" height="10" transform="rotate(0,248,128)"/><rect x="3" y="133" width="10" height="10" transform="rotate(0,8,138)"/><rect x="13" y="133" width="10" height="10" transform="rotate(0,18,138)"/><rect x="23" y="133" width="10" height="10" transform="rotate(0,28,138)"/><rect x="33" y="133" width="10" height="10" transform="rotate(0,38,138)"/><rect x="43" y="133" width="10" height="10" transform="rotate(0,48,138)"/><rect x="73" y="133" width="10" height="10" transform="rotate(0,78,138)"/><rect x="83" y="133" width="10" height="10" transform="rotate(0,88,138)"/><rect x="93" y="133" width="10" height="10" transform="rotate(0,98,138)"/><rect x="123" y="133" width="10" height="10" transform="rotate(0,128,138)"/><rect x="133" y="133" width="10" height="10" transform="rotate(0,138,138)"/><rect x="153" y="133" width="10" height="10" transform="rotate(0,158,138)"/><rect x="163" y="133" width="10" height="10" transform="rotate(0,168,138)"/><rect x="193" y="133" width="10" height="10" transform="rotate(0,198,138)"/><rect x="233" y="133" width="10" height="10" transform="rotate(0,238,138)"/><rect x="3" y="143" width="10" height="10" transform="rotate(0,8,148)"/><rect x="43" y="143" width="10" height="10" transform="rotate(0,48,148)"/><rect x="63" y="143" width="10" height="10" transform="rotate(0,68,148)"/><rect x="83" y="143" width="10" height="10" transform="rotate(0,88,148)"/><rect x="103" y="143" width="10" height="10" transform="rotate(0,108,148)"/><rect x="113" y="143" width="10" height="10" transform="rotate(0,118,148)"/><rect x="123" y="143" width="10" height="10" transform="rotate(0,128,148)"/><rect x="133" y="143" width="10" height="10" transform="rotate(0,138,148)"/><rect x="153" y="143" width="10" height="10" transform="rotate(0,158,148)"/><rect x="183" y="143" width="10" height="10" transform="rotate(0,188,148)"/><rect x="193" y="143" width="10" height="10" transform="rotate(0,198,148)"/><rect x="203" y="143" width="10" height="10" transform="rotate(0,208,148)"/><rect x="213" y="143" width="10" height="10" transform="rotate(0,218,148)"/><rect x="233" y="143" width="10" height="10" transform="rotate(0,238,148)"/><rect x="243" y="143" width="10" height="10" transform="rotate(0,248,148)"/><rect x="3" y="153" width="10" height="10" transform="rotate(0,8,158)"/><rect x="23" y="153" width="10" height="10" transform="rotate(0,28,158)"/><rect x="53" y="153" width="10" height="10" transform="rotate(0,58,158)"/><rect x="73" y="153" width="10" height="10" transform="rotate(0,78,158)"/><rect x="83" y="153" width="10" height="10" transform="rotate(0,88,158)"/><rect x="113" y="153" width="10" height="10" transform="rotate(0,118,158)"/><rect x="123" y="153" width="10" height="10" transform="rotate(0,128,158)"/><rect x="133" y="153" width="10" height="10" transform="rotate(0,138,158)"/><rect x="143" y="153" width="10" height="10" transform="rotate(0,148,158)"/><rect x="173" y="153" width="10" height="10" transform="rotate(0,178,158)"/><rect x="183" y="153" width="10" height="10" transform="rotate(0,188,158)"/><rect x="193" y="153" width="10" height="10" transform="rotate(0,198,158)"/><rect x="213" y="153" width="10" height="10" transform="rotate(0,218,158)"/><rect x="223" y="153" width="10" height="10" transform="rotate(0,228,158)"/><rect x="243" y="153" width="10" height="10" transform="rotate(0,248,158)"/><rect x="3" y="163" width="10" height="10" transform="rotate(0,8,168)"/><rect x="33" y="163" width="10" height="10" transform="rotate(0,38,168)"/><rect x="53" y="163" width="10" height="10" transform="rotate(0,58,168)"/><rect x="63" y="163" width="10" height="10" transform="rotate(0,68,168)"/><rect x="123" y="163" width="10" height="10" transform="rotate(0,128,168)"/><rect x="133" y="163" width="10" height="10" transform="rotate(0,138,168)"/><rect x="143" y="163" width="10" height="10" transform="rotate(0,148,168)"/><rect x="163" y="163" width="10" height="10" transform="rotate(0,168,168)"/><rect x="173" y="163" width="10" height="10" transform="rotate(0,178,168)"/><rect x="183" y="163" width="10" height="10" transform="rotate(0,188,168)"/><rect x="193" y="163" width="10" height="10" transform="rotate(0,198,168)"/><rect x="203" y="163" width="10" height="10" transform="rotate(0,208,168)"/><rect x="223" y="163" width="10" height="10" transform="rotate(0,228,168)"/><rect x="83" y="173" width="10" height="10" transform="rotate(0,88,178)"/><rect x="113" y="173" width="10" height="10" transform="rotate(0,118,178)"/><rect x="163" y="173" width="10" height="10" transform="rotate(0,168,178)"/><rect x="203" y="173" width="10" height="10" transform="rotate(0,208,178)"/><rect x="83" y="183" width="10" height="10" transform="rotate(0,88,188)"/><rect x="103" y="183" width="10" height="10" transform="rotate(0,108,188)"/><rect x="113" y="183" width="10" height="10" transform="rotate(0,118,188)"/><rect x="123" y="183" width="10" height="10" transform="rotate(0,128,188)"/><rect x="163" y="183" width="10" height="10" transform="rotate(0,168,188)"/><rect x="183" y="183" width="10" height="10" transform="rotate(0,188,188)"/><rect x="203" y="183" width="10" height="10" transform="rotate(0,208,188)"/><rect x="243" y="183" width="10" height="10" transform="rotate(0,248,188)"/><rect x="93" y="193" width="10" height="10" transform="rotate(0,98,198)"/><rect x="103" y="193" width="10" height="10" transform="rotate(0,108,198)"/><rect x="133" y="193" width="10" height="10" transform="rotate(0,138,198)"/><rect x="143" y="193" width="10" height="10" transform="rotate(0,148,198)"/><rect x="153" y="193" width="10" height="10" transform="rotate(0,158,198)"/><rect x="163" y="193" width="10" height="10" transform="rotate(0,168,198)"/><rect x="203" y="193" width="10" height="10" transform="rotate(0,208,198)"/><rect x="233" y="193" width="10" height="10" transform="rotate(0,238,198)"/><rect x="93" y="203" width="10" height="10" transform="rotate(0,98,208)"/><rect x="133" y="203" width="10" height="10" transform="rotate(0,138,208)"/><rect x="153" y="203" width="10" height="10" transform="rotate(0,158,208)"/><rect x="163" y="203" width="10" height="10" transform="rotate(0,168,208)"/><rect x="173" y="203" width="10" height="10" transform="rotate(0,178,208)"/><rect x="183" y="203" width="10" height="10" transform="rotate(0,188,208)"/><rect x="193" y="203" width="10" height="10" transform="rotate(0,198,208)"/><rect x="203" y="203" width="10" height="10" transform="rotate(0,208,208)"/><rect x="223" y="203" width="10" height="10" transform="rotate(0,228,208)"/><rect x="243" y="203" width="10" height="10" transform="rotate(0,248,208)"/><rect x="93" y="213" width="10" height="10" transform="rotate(0,98,218)"/><rect x="113" y="213" width="10" height="10" transform="rotate(0,118,218)"/><rect x="123" y="213" width="10" height="10" transform="rotate(0,128,218)"/><rect x="133" y="213" width="10" height="10" transform="rotate(0,138,218)"/><rect x="163" y="213" width="10" height="10" transform="rotate(0,168,218)"/><rect x="173" y="213" width="10" height="10" transform="rotate(0,178,218)"/><rect x="183" y="213" width="10" height="10" transform="rotate(0,188,218)"/><rect x="233" y="213" width="10" height="10" transform="rotate(0,238,218)"/><rect x="243" y="213" width="10" height="10" transform="rotate(0,248,218)"/><rect x="103" y="223" width="10" height="10" transform="rotate(0,108,228)"/><rect x="113" y="223" width="10" height="10" transform="rotate(0,118,228)"/><rect x="143" y="223" width="10" height="10" transform="rotate(0,148,228)"/><rect x="153" y="223" width="10" height="10" transform="rotate(0,158,228)"/><rect x="213" y="223" width="10" height="10" transform="rotate(0,218,228)"/><rect x="223" y="223" width="10" height="10" transform="rotate(0,228,228)"/><rect x="243" y="223" width="10" height="10" transform="rotate(0,248,228)"/><rect x="83" y="233" width="10" height="10" transform="rotate(0,88,238)"/><rect x="103" y="233" width="10" height="10" transform="rotate(0,108,238)"/><rect x="123" y="233" width="10" height="10" transform="rotate(0,128,238)"/><rect x="143" y="233" width="10" height="10" transform="rotate(0,148,238)"/><rect x="153" y="233" width="10" height="10" transform="rotate(0,158,238)"/><rect x="163" y="233" width="10" height="10" transform="rotate(0,168,238)"/><rect x="173" y="233" width="10" height="10" transform="rotate(0,178,238)"/><rect x="193" y="233" width="10" height="10" transform="rotate(0,198,238)"/><rect x="203" y="233" width="10" height="10" transform="rotate(0,208,238)"/><rect x="243" y="233" width="10" height="10" transform="rotate(0,248,238)"/><rect x="93" y="243" width="10" height="10" transform="rotate(0,98,248)"/><rect x="113" y="243" width="10" height="10" transform="rotate(0,118,248)"/><rect x="143" y="243" width="10" height="10" transform="rotate(0,148,248)"/><rect x="163" y="243" width="10" height="10" transform="rotate(0,168,248)"/><rect x="183" y="243" width="10" height="10" transform="rotate(0,188,248)"/><rect x="213" y="243" width="10" height="10" transform="rotate(0,218,248)"/><rect x="243" y="243" width="10" height="10" transform="rotate(0,248,248)"/><rect x="3" y="3" width="10" height="10" transform="rotate(0,8,8)"/><rect x="13" y="3" width="10" height="10" transform="rotate(0,18,8)"/><rect x="23" y="3" width="10" height="10" transform="rotate(0,28,8)"/><rect x="33" y="3" width="10" height="10" transform="rotate(0,38,8)"/><rect x="43" y="3" width="10" height="10" transform="rotate(0,48,8)"/><rect x="53" y="3" width="10" height="10" transform="rotate(0,58,8)"/><rect x="63" y="3" width="10" height="10" transform="rotate(0,68,8)"/><rect x="3" y="13" width="10" height="10" transform="rotate(0,8,18)"/><rect x="63" y="13" width="10" height="10" transform="rotate(0,68,18)"/><rect x="3" y="23" width="10" height="10" transform="rotate(0,8,28)"/><rect x="63" y="23" width="10" height="10" transform="rotate(0,68,28)"/><rect x="3" y="33" width="10" height="10" transform="rotate(0,8,38)"/><rect x="63" y="33" width="10" height="10" transform="rotate(0,68,38)"/><rect x="3" y="43" width="10" height="10" transform="rotate(0,8,48)"/><rect x="63" y="43" width="10" height="10" transform="rotate(0,68,48)"/><rect x="3" y="53" width="10" height="10" transform="rotate(0,8,58)"/><rect x="63" y="53" width="10" height="10" transform="rotate(0,68,58)"/><rect x="3" y="63" width="10" height="10" transform="rotate(0,8,68)"/><rect x="13" y="63" width="10" height="10" transform="rotate(0,18,68)"/><rect x="23" y="63" width="10" height="10" transform="rotate(0,28,68)"/><rect x="33" y="63" width="10" height="10" transform="rotate(0,38,68)"/><rect x="43" y="63" width="10" height="10" transform="rotate(0,48,68)"/><rect x="53" y="63" width="10" height="10" transform="rotate(0,58,68)"/><rect x="63" y="63" width="10" height="10" transform="rotate(0,68,68)"/><rect x="23" y="23" width="10" height="10" transform="rotate(0,28,28)"/><rect x="33" y="23" width="10" height="10" transform="rotate(0,38,28)"/><rect x="43" y="23" width="10" height="10" transform="rotate(0,48,28)"/><rect x="23" y="33" width="10" height="10" transform="rotate(0,28,38)"/><rect x="33" y="33" width="10" height="10" transform="rotate(0,38,38)"/><rect x="43" y="33" width="10" height="10" transform="rotate(0,48,38)"/><rect x="23" y="43" width="10" height="10" transform="rotate(0,28,48)"/><rect x="33" y="43" width="10" height="10" transform="rotate(0,38,48)"/><rect x="43" y="43" width="10" height="10" transform="rotate(0,48,48)"/><rect x="183" y="3" width="10" height="10" transform="rotate(0,188,8)"/><rect x="193" y="3" width="10" height="10" transform="rotate(0,198,8)"/><rect x="203" y="3" width="10" height="10" transform="rotate(0,208,8)"/><rect x="213" y="3" width="10" height="10" transform="rotate(0,218,8)"/><rect x="223" y="3" width="10" height="10" transform="rotate(0,228,8)"/><rect x="233" y="3" width="10" height="10" transform="rotate(0,238,8)"/><rect x="243" y="3" width="10" height="10" transform="rotate(0,248,8)"/><rect x="183" y="13" width="10" height="10" transform="rotate(0,188,18)"/><rect x="243" y="13" width="10" height="10" transform="rotate(0,248,18)"/><rect x="183" y="23" width="10" height="10" transform="rotate(0,188,28)"/><rect x="243" y="23" width="10" height="10" transform="rotate(0,248,28)"/><rect x="183" y="33" width="10" height="10" transform="rotate(0,188,38)"/><rect x="243" y="33" width="10" height="10" transform="rotate(0,248,38)"/><rect x="183" y="43" width="10" height="10" transform="rotate(0,188,48)"/><rect x="243" y="43" width="10" height="10" transform="rotate(0,248,48)"/><rect x="183" y="53" width="10" height="10" transform="rotate(0,188,58)"/><rect x="243" y="53" width="10" height="10" transform="rotate(0,248,58)"/><rect x="183" y="63" width="10" height="10" transform="rotate(0,188,68)"/><rect x="193" y="63" width="10" height="10" transform="rotate(0,198,68)"/><rect x="203" y="63" width="10" height="10" transform="rotate(0,208,68)"/><rect x="213" y="63" width="10" height="10" transform="rotate(0,218,68)"/><rect x="223" y="63" width="10" height="10" transform="rotate(0,228,68)"/><rect x="233" y="63" width="10" height="10" transform="rotate(0,238,68)"/><rect x="243" y="63" width="10" height="10" transform="rotate(0,248,68)"/><rect x="203" y="23" width="10" height="10" transform="rotate(0,208,28)"/><rect x="213" y="23" width="10" height="10" transform="rotate(0,218,28)"/><rect x="223" y="23" width="10" height="10" transform="rotate(0,228,28)"/><rect x="203" y="33" width="10" height="10" transform="rotate(0,208,38)"/><rect x="213" y="33" width="10" height="10" transform="rotate(0,218,38)"/><rect x="223" y="33" width="10" height="10" transform="rotate(0,228,38)"/><rect x="203" y="43" width="10" height="10" transform="rotate(0,208,48)"/><rect x="213" y="43" width="10" height="10" transform="rotate(0,218,48)"/><rect x="223" y="43" width="10" height="10" transform="rotate(0,228,48)"/><rect x="3" y="183" width="10" height="10" transform="rotate(0,8,188)"/><rect x="13" y="183" width="10" height="10" transform="rotate(0,18,188)"/><rect x="23" y="183" width="10" height="10" transform="rotate(0,28,188)"/><rect x="33" y="183" width="10" height="10" transform="rotate(0,38,188)"/><rect x="43" y="183" width="10" height="10" transform="rotate(0,48,188)"/><rect x="53" y="183" width="10" height="10" transform="rotate(0,58,188)"/><rect x="63" y="183" width="10" height="10" transform="rotate(0,68,188)"/><rect x="3" y="193" width="10" height="10" transform="rotate(0,8,198)"/><rect x="63" y="193" width="10" height="10" transform="rotate(0,68,198)"/><rect x="3" y="203" width="10" height="10" transform="rotate(0,8,208)"/><rect x="63" y="203" width="10" height="10" transform="rotate(0,68,208)"/><rect x="3" y="213" width="10" height="10" transform="rotate(0,8,218)"/><rect x="63" y="213" width="10" height="10" transform="rotate(0,68,218)"/><rect x="3" y="223" width="10" height="10" transform="rotate(0,8,228)"/><rect x="63" y="223" width="10" height="10" transform="rotate(0,68,228)"/><rect x="3" y="233" width="10" height="10" transform="rotate(0,8,238)"/><rect x="63" y="233" width="10" height="10" transform="rotate(0,68,238)"/><rect x="3" y="243" width="10" height="10" transform="rotate(0,8,248)"/><rect x="13" y="243" width="10" height="10" transform="rotate(0,18,248)"/><rect x="23" y="243" width="10" height="10" transform="rotate(0,28,248)"/><rect x="33" y="243" width="10" height="10" transform="rotate(0,38,248)"/><rect x="43" y="243" width="10" height="10" transform="rotate(0,48,248)"/><rect x="53" y="243" width="10" height="10" transform="rotate(0,58,248)"/><rect x="63" y="243" width="10" height="10" transform="rotate(0,68,248)"/><rect x="23" y="203" width="10" height="10" transform="rotate(0,28,208)"/><rect x="33" y="203" width="10" height="10" transform="rotate(0,38,208)"/><rect x="43" y="203" width="10" height="10" transform="rotate(0,48,208)"/><rect x="23" y="213" width="10" height="10" transform="rotate(0,28,218)"/><rect x="33" y="213" width="10" height="10" transform="rotate(0,38,218)"/><rect x="43" y="213" width="10" height="10" transform="rotate(0,48,218)"/><rect x="23" y="223" width="10" height="10" transform="rotate(0,28,228)"/><rect x="33" y="223" width="10" height="10" transform="rotate(0,38,228)"/><rect x="43" y="223" width="10" height="10" transform="rotate(0,48,228)"/></clipPath></defs><rect x="0" y="0" height="256" width="256" clip-path="url('#clip-path-background-color-0')" fill="#fff"/><rect x="0" y="0" height="256" width="256" clip-path="url('#clip-path-dot-color-0')" fill="#000"/></svg>