<?xml version="1.0" standalone="no"?>
<svg width="300" height="300" xmlns:xlink="http://www.w3.org/1999/xlink" viewBox="0 0 300 300" xmlns="http://www.w3.org/2000/svg"><defs><clipPath id="clip-path-background-color-2"><rect x="0" y="0" width="300" height="300"/></clipPath><clipPath id="clip-path-dot-color-2"><path d="M 95 5v 10h 10a 10 10, 0, 0, 0, -10 -10" transform="rotate(-90,100,10)"/><path d="M 105 5v 10h 10a 10 10, 0, 0, 0, -10 -10" transform="rotate(90,110,10)"/><path d="M 135 5v 10h 10a 10 10, 0, 0, 0, -10 -10" transform="rotate(-90,140,10)"/><path d="M 155 5v 5a 5 5, 0, 0, 0, 5 5h 5v -5a 5 5, 0, 0, 0, -5 -5" transform="rotate(90,160,10)"/><path d="M 195 5v 10h 10a 10 10, 0, 0, 0, -10 -10" transform="rotate(-90,200,10)"/><path d="M 205 5v 10h 10a 10 10, 0, 0, 0, -10 -10" transform="rotate(90,210,10)"/><path d="M 95 15v 10h 10a 10 10, 0, 0, 0, -10 -10" transform="rotate(90,100,20)"/><path d="M 115 15v 10h 10a 10 10, 0, 0, 0, -10 -10" transform="rotate(-90,120,20)"/><rect x="125" y="15" width="10" height="10" transform="rotate(0,130,20)"/><path d="M 135 15v 10h 10a 10 10, 0, 0, 0, -10 -10" transform="rotate(90,140,20)"/><path d="M 195 15v 10h 10a 10 10, 0, 0, 0, -10 -10" transform="rotate(90,200,20)"/><path d="M 85 25v 5a 5 5, 0, 0, 0, 5 5h 5v -5a 5 5, 0, 0, 0, -5 -5" transform="rotate(90,90,30)"/><path d="M 105 25v 10h 10a 10 10, 0, 0, 0, -10 -10" transform="rotate(-90,110,30)"/><path d="M 125 25v 10h 10a 10 10, 0, 0, 0, -10 -10" transform="rotate(90,130,30)"/><path d="M 145 25v 10h 10a 10 10, 0, 0, 0, -10 -10" transform="rotate(-90,150,30)"/><rect x="155" y="25" width="10" height="10" transform="rotate(0,160,30)"/><rect x="165" y="25" width="10" height="10" transform="rotate(0,170,30)"/><rect x="175" y="25" width="10" height="10" transform="rotate(0,180,30)"/><rect x="185" y="25" width="10" height="10" transform="rotate(0,190,30)"/><path d="M 95 35v 10h 10a 10 10, 0, 0, 0, -10 -10" transform="rotate(-90,100,40)"/><rect x="105" y="35" width="10" height="10" transform="rotate(0,110,40)"/><path d="M 115 35v 10h 10a 10 10, 0, 0, 0, -10 -10" transform="rotate(90,120,40)"/><path d="M 135 35v 5a 5 5, 0, 0, 0, 5 5h 5v -5a 5 5, 0, 0, 0, -5 -5" transform="rotate(90,140,40)"/><rect x="165" y="35" width="10" height="10" transform="rotate(0,170,40)"/><path d="M 185 35v 10h 10a 10 10, 0, 0, 0, -10 -10" transform="rotate(90,190,40)"/><path d="M 205 35v 5a 5 5, 0, 0, 0, 5 5h 5v -5a 5 5, 0, 0, 0, -5 -5" transform="rotate(90,210,40)"/><path d="M 85 45v 10h 10a 10 10, 0, 0, 0, -10 -10" transform="rotate(-90,90,50)"/><path d="M 95 45v 10h 10a 10 10, 0, 0, 0, -10 -10" transform="rotate(90,100,50)"/><path d="M 145 45v 5a 5 5, 0, 0, 0, 5 5h 5v -5a 5 5, 0, 0, 0, -5 -5" transform="rotate(90,150,50)"/><rect x="165" y="45" width="10" height="10" transform="rotate(0,170,50)"/><rect x="175" y="45" width="10" height="10" transform="rotate(0,180,50)"/><rect x="85" y="55" width="10" height="10" transform="rotate(0,90,60)"/><path d="M 105 55v 10h 10a 10 10, 0, 0, 0, -10 -10" transform="rotate(-90,110,60)"/><path d="M 125 55v 10h 10a 10 10, 0, 0, 0, -10 -10" transform="rotate(-90,130,60)"/><path d="M 155 55v 5a 5 5, 0, 0, 0, 5 5h 5v -5a 5 5, 0, 0, 0, -5 -5" transform="rotate(90,160,60)"/><path d="M 175 55v 10h 10a 10 10, 0, 0, 0, -10 -10" transform="rotate(90,180,60)"/><path d="M 195 55v 5a 5 5, 0, 0, 0, 5 5h 5v -5a 5 5, 0, 0, 0, -5 -5" transform="rotate(90,200,60)"/><path d="M 85 65v 10h 10a 10 10, 0, 0, 0, -10 -10" transform="rotate(90,90,70)"/><path d="M 105 65v 10h 10a 10 10, 0, 0, 0, -10 -10" transform="rotate(90,110,70)"/><path d="M 125 65v 10h 10a 10 10, 0, 0, 0, -10 -10" transform="rotate(90,130,70)"/><path d="M 145 65v 10h 10a 10 10, 0, 0, 0, -10 -10" transform="rotate(-90,150,70)"/><path d="M 165 65v 10h 10a 10 10, 0, 0, 0, -10 -10" transform="rotate(-90,170,70)"/><path d="M 185 65v 5a 5 5, 0, 0, 0, 5 5h 5v -5a 5 5, 0, 0, 0, -5 -5" transform="rotate(90,190,70)"/><path d="M 205 65v 5a 5 5, 0, 0, 0, 5 5h 5v -5a 5 5, 0, 0, 0, -5 -5" transform="rotate(90,210,70)"/><path d="M 115 75v 5a 5 5, 0, 0, 0, 5 5h 5v -5a 5 5, 0, 0, 0, -5 -5" transform="rotate(90,120,80)"/><path d="M 135 75v 10h 10a 10 10, 0, 0, 0, -10 -10" transform="rotate(-90,140,80)"/><rect x="145" y="75" width="10" height="10" transform="rotate(0,150,80)"/><rect x="155" y="75" width="10" height="10" transform="rotate(0,160,80)"/><path d="M 165 75v 10h 10a 10 10, 0, 0, 0, -10 -10" transform="rotate(90,170,80)"/><path d="M 195 75v 10h 10a 10 10, 0, 0, 0, -10 -10" transform="rotate(-90,200,80)"/><path d="M 15 85v 10h 10a 10 10, 0, 0, 0, -10 -10" transform="rotate(-90,20,90)"/><path d="M 45 85v 5a 5 5, 0, 0, 0, 5 5h 5v -5a 5 5, 0, 0, 0, -5 -5" transform="rotate(90,50,90)"/><path d="M 65 85v 5a 5 5, 0, 0, 0, 5 5h 5v -5a 5 5, 0, 0, 0, -5 -5" transform="rotate(90,70,90)"/><path d="M 85 85v 10h 10a 10 10, 0, 0, 0, -10 -10" transform="rotate(-90,90,90)"/><path d="M 125 85v 5a 5 5, 0, 0, 0, 5 5h 5v -5a 5 5, 0, 0, 0, -5 -5" transform="rotate(90,130,90)"/><rect x="145" y="85" width="10" height="10" transform="rotate(0,150,90)"/><path d="M 155 85v 10h 10a 10 10, 0, 0, 0, -10 -10" transform="rotate(90,160,90)"/><rect x="195" y="85" width="10" height="10" transform="rotate(0,200,90)"/><rect x="205" y="85" width="10" height="10" transform="rotate(0,210,90)"/><path d="M 215 85v 10h 10a 10 10, 0, 0, 0, -10 -10" transform="rotate(90,220,90)"/><path d="M 235 85v 10h 10a 10 10, 0, 0, 0, -10 -10" transform="rotate(-90,240,90)"/><path d="M 245 85v 10h 10a 10 10, 0, 0, 0, -10 -10" transform="rotate(90,250,90)"/><path d="M 265 85v 10h 10a 10 10, 0, 0, 0, -10 -10" transform="rotate(-90,270,90)"/><path d="M 5 95v 10h 10a 10 10, 0, 0, 0, -10 -10" transform="rotate(-90,10,100)"/><rect x="15" y="95" width="10" height="10" transform="rotate(0,20,100)"/><path d="M 35 95v 5a 5 5, 0, 0, 0, 5 5h 5v -5a 5 5, 0, 0, 0, -5 -5" transform="rotate(90,40,100)"/><path d="M 55 95v 10h 10a 10 10, 0, 0, 0, -10 -10" transform="rotate(-90,60,100)"/><path d="M 75 95v 10h 10a 10 10, 0, 0, 0, -10 -10" transform="rotate(-90,80,100)"/><path d="M 85 95v 10h 10a 10 10, 0, 0, 0, -10 -10" transform="rotate(90,90,100)"/><path d="M 185 95v 10h 10a 10 10, 0, 0, 0, -10 -10" transform="rotate(-90,190,100)"/><rect x="195" y="95" width="10" height="10" transform="rotate(0,200,100)"/><rect x="235" y="95" width="10" height="10" transform="rotate(0,240,100)"/><rect x="265" y="95" width="10" height="10" transform="rotate(0,270,100)"/><rect x="275" y="95" width="10" height="10" transform="rotate(0,280,100)"/><rect x="285" y="95" width="10" height="10" transform="rotate(0,290,100)"/><rect x="5" y="105" width="10" height="10" transform="rotate(0,10,110)"/><rect x="15" y="105" width="10" height="10" transform="rotate(0,20,110)"/><rect x="25" y="105" width="10" height="10" transform="rotate(0,30,110)"/><path d="M 45 105v 10h 10a 10 10, 0, 0, 0, -10 -10" transform="rotate(-90,50,110)"/><rect x="55" y="105" width="10" height="10" transform="rotate(0,60,110)"/><rect x="65" y="105" width="10" height="10" transform="rotate(0,70,110)"/><path d="M 75 105v 10h 10a 10 10, 0, 0, 0, -10 -10" transform="rotate(90,80,110)"/><path d="M 135 105v 10h 10a 10 10, 0, 0, 0, -10 -10" transform="rotate(-90,140,110)"/><path d="M 175 105v 10h 10a 10 10, 0, 0, 0, -10 -10" transform="rotate(-90,180,110)"/><rect x="185" y="105" width="10" height="10" transform="rotate(0,190,110)"/><rect x="195" y="105" width="10" height="10" transform="rotate(0,200,110)"/><path d="M 215 105v 10h 10a 10 10, 0, 0, 0, -10 -10" transform="rotate(-90,220,110)"/><rect x="235" y="105" width="10" height="10" transform="rotate(0,240,110)"/><rect x="245" y="105" width="10" height="10" transform="rotate(0,250,110)"/><rect x="255" y="105" width="10" height="10" transform="rotate(0,260,110)"/><path d="M 265 105v 10h 10a 10 10, 0, 0, 0, -10 -10" transform="rotate(90,270,110)"/><rect x="285" y="105" width="10" height="10" transform="rotate(0,290,110)"/><rect x="5" y="115" width="10" height="10" transform="rotate(0,10,120)"/><rect x="15" y="115" width="10" height="10" transform="rotate(0,20,120)"/><path d="M 25 115v 10h 10a 10 10, 0, 0, 0, -10 -10" transform="rotate(90,30,120)"/><path d="M 45 115v 10h 10a 10 10, 0, 0, 0, -10 -10" transform="rotate(90,50,120)"/><path d="M 115 115v 10h 10a 10 10, 0, 0, 0, -10 -10" transform="rotate(-90,120,120)"/><rect x="135" y="115" width="10" height="10" transform="rotate(0,140,120)"/><path d="M 145 115v 10h 10a 10 10, 0, 0, 0, -10 -10" transform="rotate(90,150,120)"/><rect x="175" y="115" width="10" height="10" transform="rotate(0,180,120)"/><rect x="195" y="115" width="10" height="10" transform="rotate(0,200,120)"/><rect x="205" y="115" width="10" height="10" transform="rotate(0,210,120)"/><path d="M 215 115v 10h 10a 10 10, 0, 0, 0, -10 -10" transform="rotate(90,220,120)"/><rect x="245" y="115" width="10" height="10" transform="rotate(0,250,120)"/><rect x="255" y="115" width="10" height="10" transform="rotate(0,260,120)"/><path d="M 275 115v 10h 10a 10 10, 0, 0, 0, -10 -10" transform="rotate(-90,280,120)"/><rect x="285" y="115" width="10" height="10" transform="rotate(0,290,120)"/><rect x="5" y="125" width="10" height="10" transform="rotate(0,10,130)"/><path d="M 15 125v 10h 10a 10 10, 0, 0, 0, -10 -10" transform="rotate(90,20,130)"/><path d="M 65 125v 5a 5 5, 0, 0, 0, 5 5h 5v -5a 5 5, 0, 0, 0, -5 -5" transform="rotate(90,70,130)"/><path d="M 85 125v 10h 10a 10 10, 0, 0, 0, -10 -10" transform="rotate(-90,90,130)"/><rect x="95" y="125" width="10" height="10" transform="rotate(0,100,130)"/><rect x="105" y="125" width="10" height="10" transform="rotate(0,110,130)"/><path d="M 115 125v 10h 10a 10 10, 0, 0, 0, -10 -10" transform="rotate(90,120,130)"/><path d="M 165 125v 10h 10a 10 10, 0, 0, 0, -10 -10" transform="rotate(-90,170,130)"/><path d="M 175 125v 10h 10a 10 10, 0, 0, 0, -10 -10" transform="rotate(90,180,130)"/><path d="M 205 125v 10h 10a 10 10, 0, 0, 0, -10 -10" transform="rotate(90,210,130)"/><path d="M 235 125v 5a 5 5, 0, 0, 0, 5 5h 5v -5a 5 5, 0, 0, 0, -5 -5" transform="rotate(90,240,130)"/><path d="M 255 125v 10h 10a 10 10, 0, 0, 0, -10 -10" transform="rotate(90,260,130)"/><rect x="285" y="125" width="10" height="10" transform="rotate(0,290,130)"/><path d="M 5 135v 10h 10a 10 10, 0, 0, 0, -10 -10" transform="rotate(90,10,140)"/><path d="M 25 135v 10h 10a 10 10, 0, 0, 0, -10 -10" transform="rotate(-90,30,140)"/><rect x="35" y="135" width="10" height="10" transform="rotate(0,40,140)"/><rect x="45" y="135" width="10" height="10" transform="rotate(0,50,140)"/><rect x="55" y="135" width="10" height="10" transform="rotate(0,60,140)"/><rect x="95" y="135" width="10" height="10" transform="rotate(0,100,140)"/><rect x="105" y="135" width="10" height="10" transform="rotate(0,110,140)"/><path d="M 135 135v 10h 10a 10 10, 0, 0, 0, -10 -10" transform="rotate(-90,140,140)"/><rect x="145" y="135" width="10" height="10" transform="rotate(0,150,140)"/><path d="M 155 135v 10h 10a 10 10, 0, 0, 0, -10 -10" transform="rotate(90,160,140)"/><path d="M 185 135v 5a 5 5, 0, 0, 0, 5 5h 5v -5a 5 5, 0, 0, 0, -5 -5" transform="rotate(90,190,140)"/><path d="M 225 135v 10h 10a 10 10, 0, 0, 0, -10 -10" transform="rotate(-90,230,140)"/><path d="M 245 135v 10h 10a 10 10, 0, 0, 0, -10 -10" transform="rotate(-90,250,140)"/><path d="M 265 135v 10h 10a 10 10, 0, 0, 0, -10 -10" transform="rotate(-90,270,140)"/><rect x="275" y="135" width="10" height="10" transform="rotate(0,280,140)"/><rect x="285" y="135" width="10" height="10" transform="rotate(0,290,140)"/><path d="M 15 145v 10h 10a 10 10, 0, 0, 0, -10 -10" transform="rotate(-90,20,150)"/><rect x="45" y="145" width="10" height="10" transform="rotate(0,50,150)"/><rect x="55" y="145" width="10" height="10" transform="rotate(0,60,150)"/><rect x="65" y="145" width="10" height="10" transform="rotate(0,70,150)"/><rect x="75" y="145" width="10" height="10" transform="rotate(0,80,150)"/><rect x="85" y="145" width="10" height="10" transform="rotate(0,90,150)"/><rect x="95" y="145" width="10" height="10" transform="rotate(0,100,150)"/><rect x="105" y="145" width="10" height="10" transform="rotate(0,110,150)"/><path d="M 115 145v 10h 10a 10 10, 0, 0, 0, -10 -10" transform="rotate(90,120,150)"/><path d="M 145 145v 10h 10a 10 10, 0, 0, 0, -10 -10" transform="rotate(90,150,150)"/><path d="M 175 145v 10h 10a 10 10, 0, 0, 0, -10 -10" transform="rotate(-90,180,150)"/><path d="M 205 145v 10h 10a 10 10, 0, 0, 0, -10 -10" transform="rotate(-90,210,150)"/><rect x="215" y="145" width="10" height="10" transform="rotate(0,220,150)"/><rect x="225" y="145" width="10" height="10" transform="rotate(0,230,150)"/><path d="M 245 145v 10h 10a 10 10, 0, 0, 0, -10 -10" transform="rotate(90,250,150)"/><rect x="285" y="145" width="10" height="10" transform="rotate(0,290,150)"/><path d="M 5 155v 10h 10a 10 10, 0, 0, 0, -10 -10" transform="rotate(-90,10,160)"/><rect x="15" y="155" width="10" height="10" transform="rotate(0,20,160)"/><path d="M 25 155v 10h 10a 10 10, 0, 0, 0, -10 -10" transform="rotate(90,30,160)"/><rect x="75" y="155" width="10" height="10" transform="rotate(0,80,160)"/><rect x="85" y="155" width="10" height="10" transform="rotate(0,90,160)"/><rect x="95" y="155" width="10" height="10" transform="rotate(0,100,160)"/><path d="M 125 155v 10h 10a 10 10, 0, 0, 0, -10 -10" transform="rotate(-90,130,160)"/><rect x="135" y="155" width="10" height="10" transform="rotate(0,140,160)"/><path d="M 155 155v 10h 10a 10 10, 0, 0, 0, -10 -10" transform="rotate(-90,160,160)"/><rect x="165" y="155" width="10" height="10" transform="rotate(0,170,160)"/><rect x="175" y="155" width="10" height="10" transform="rotate(0,180,160)"/><rect x="185" y="155" width="10" height="10" transform="rotate(0,190,160)"/><rect x="225" y="155" width="10" height="10" transform="rotate(0,230,160)"/><path d="M 235 155v 10h 10a 10 10, 0, 0, 0, -10 -10" transform="rotate(90,240,160)"/><path d="M 255 155v 5a 5 5, 0, 0, 0, 5 5h 5v -5a 5 5, 0, 0, 0, -5 -5" transform="rotate(90,260,160)"/><path d="M 275 155v 10h 10a 10 10, 0, 0, 0, -10 -10" transform="rotate(-90,280,160)"/><path d="M 285 155v 10h 10a 10 10, 0, 0, 0, -10 -10" transform="rotate(90,290,160)"/><rect x="5" y="165" width="10" height="10" transform="rotate(0,10,170)"/><path d="M 15 165v 10h 10a 10 10, 0, 0, 0, -10 -10" transform="rotate(90,20,170)"/><path d="M 35 165v 5a 5 5, 0, 0, 0, 5 5h 5v -5a 5 5, 0, 0, 0, -5 -5" transform="rotate(90,40,170)"/><path d="M 65 165v 5a 5 5, 0, 0, 0, 5 5h 5v -5a 5 5, 0, 0, 0, -5 -5" transform="rotate(90,70,170)"/><rect x="85" y="165" width="10" height="10" transform="rotate(0,90,170)"/><rect x="95" y="165" width="10" height="10" transform="rotate(0,100,170)"/><path d="M 135 165v 10h 10a 10 10, 0, 0, 0, -10 -10" transform="rotate(90,140,170)"/><rect x="185" y="165" width="10" height="10" transform="rotate(0,190,170)"/><rect x="195" y="165" width="10" height="10" transform="rotate(0,200,170)"/><path d="M 245 165v 10h 10a 10 10, 0, 0, 0, -10 -10" transform="rotate(-90,250,170)"/><path d="M 275 165v 10h 10a 10 10, 0, 0, 0, -10 -10" transform="rotate(90,280,170)"/><path d="M 5 175v 10h 10a 10 10, 0, 0, 0, -10 -10" transform="rotate(90,10,180)"/><path d="M 45 175v 10h 10a 10 10, 0, 0, 0, -10 -10" transform="rotate(-90,50,180)"/><path d="M 55 175v 10h 10a 10 10, 0, 0, 0, -10 -10" transform="rotate(90,60,180)"/><path d="M 75 175v 10h 10a 10 10, 0, 0, 0, -10 -10" transform="rotate(-90,80,180)"/><rect x="85" y="175" width="10" height="10" transform="rotate(0,90,180)"/><path d="M 95 175v 10h 10a 10 10, 0, 0, 0, -10 -10" transform="rotate(90,100,180)"/><path d="M 125 175v 10h 10a 10 10, 0, 0, 0, -10 -10" transform="rotate(-90,130,180)"/><path d="M 165 175v 10h 10a 10 10, 0, 0, 0, -10 -10" transform="rotate(-90,170,180)"/><rect x="195" y="175" width="10" height="10" transform="rotate(0,200,180)"/><rect x="205" y="175" width="10" height="10" transform="rotate(0,210,180)"/><path d="M 215 175v 10h 10a 10 10, 0, 0, 0, -10 -10" transform="rotate(90,220,180)"/><rect x="245" y="175" width="10" height="10" transform="rotate(0,250,180)"/><path d="M 285 175v 10h 10a 10 10, 0, 0, 0, -10 -10" transform="rotate(-90,290,180)"/><path d="M 35 185v 10h 10a 10 10, 0, 0, 0, -10 -10" transform="rotate(-90,40,190)"/><path d="M 45 185v 10h 10a 10 10, 0, 0, 0, -10 -10" transform="rotate(90,50,190)"/><path d="M 65 185v 5a 5 5, 0, 0, 0, 5 5h 5v -5a 5 5, 0, 0, 0, -5 -5" transform="rotate(90,70,190)"/><path d="M 85 185v 10h 10a 10 10, 0, 0, 0, -10 -10" transform="rotate(90,90,190)"/><path d="M 105 185v 10h 10a 10 10, 0, 0, 0, -10 -10" transform="rotate(-90,110,190)"/><rect x="115" y="185" width="10" height="10" transform="rotate(0,120,190)"/><rect x="125" y="185" width="10" height="10" transform="rotate(0,130,190)"/><path d="M 135 185v 10h 10a 10 10, 0, 0, 0, -10 -10" transform="rotate(90,140,190)"/><rect x="165" y="185" width="10" height="10" transform="rotate(0,170,190)"/><rect x="175" y="185" width="10" height="10" transform="rotate(0,180,190)"/><rect x="185" y="185" width="10" height="10" transform="rotate(0,190,190)"/><path d="M 205 185v 10h 10a 10 10, 0, 0, 0, -10 -10" transform="rotate(90,210,190)"/><rect x="245" y="185" width="10" height="10" transform="rotate(0,250,190)"/><rect x="255" y="185" width="10" height="10" transform="rotate(0,260,190)"/><path d="M 265 185v 10h 10a 10 10, 0, 0, 0, -10 -10" transform="rotate(90,270,190)"/><rect x="285" y="185" width="10" height="10" transform="rotate(0,290,190)"/><path d="M 25 195v 10h 10a 10 10, 0, 0, 0, -10 -10" transform="rotate(-90,30,200)"/><path d="M 75 195v 5a 5 5, 0, 0, 0, 5 5h 5v -5a 5 5, 0, 0, 0, -5 -5" transform="rotate(90,80,200)"/><path d="M 95 195v 5a 5 5, 0, 0, 0, 5 5h 5v -5a 5 5, 0, 0, 0, -5 -5" transform="rotate(90,100,200)"/><rect x="115" y="195" width="10" height="10" transform="rotate(0,120,200)"/><path d="M 125 195v 10h 10a 10 10, 0, 0, 0, -10 -10" transform="rotate(90,130,200)"/><rect x="175" y="195" width="10" height="10" transform="rotate(0,180,200)"/><rect x="185" y="195" width="10" height="10" transform="rotate(0,190,200)"/><path d="M 235 195v 10h 10a 10 10, 0, 0, 0, -10 -10" transform="rotate(-90,240,200)"/><rect x="245" y="195" width="10" height="10" transform="rotate(0,250,200)"/><path d="M 255 195v 10h 10a 10 10, 0, 0, 0, -10 -10" transform="rotate(90,260,200)"/><path d="M 285 195v 10h 10a 10 10, 0, 0, 0, -10 -10" transform="rotate(90,290,200)"/><path d="M 5 205v 10h 10a 10 10, 0, 0, 0, -10 -10" transform="rotate(-90,10,210)"/><rect x="15" y="205" width="10" height="10" transform="rotate(0,20,210)"/><path d="M 25 205v 10h 10a 10 10, 0, 0, 0, -10 -10" transform="rotate(90,30,210)"/><path d="M 45 205v 10h 10a 10 10, 0, 0, 0, -10 -10" transform="rotate(-90,50,210)"/><rect x="55" y="205" width="10" height="10" transform="rotate(0,60,210)"/><path d="M 65 205v 10h 10a 10 10, 0, 0, 0, -10 -10" transform="rotate(90,70,210)"/><path d="M 85 205v 10h 10a 10 10, 0, 0, 0, -10 -10" transform="rotate(-90,90,210)"/><path d="M 115 205v 10h 10a 10 10, 0, 0, 0, -10 -10" transform="rotate(90,120,210)"/><path d="M 145 205v 10h 10a 10 10, 0, 0, 0, -10 -10" transform="rotate(-90,150,210)"/><rect x="155" y="205" width="10" height="10" transform="rotate(0,160,210)"/><rect x="175" y="205" width="10" height="10" transform="rotate(0,180,210)"/><rect x="185" y="205" width="10" height="10" transform="rotate(0,190,210)"/><rect x="195" y="205" width="10" height="10" transform="rotate(0,200,210)"/><rect x="205" y="205" width="10" height="10" transform="rotate(0,210,210)"/><rect x="215" y="205" width="10" height="10" transform="rotate(0,220,210)"/><rect x="225" y="205" width="10" height="10" transform="rotate(0,230,210)"/><rect x="235" y="205" width="10" height="10" transform="rotate(0,240,210)"/><rect x="245" y="205" width="10" height="10" transform="rotate(0,250,210)"/><path d="M 275 205v 10h 10a 10 10, 0, 0, 0, -10 -10" transform="rotate(-90,280,210)"/><path d="M 85 215v 10h 10a 10 10, 0, 0, 0, -10 -10" transform="rotate(90,90,220)"/><path d="M 105 215v 5a 5 5, 0, 0, 0, 5 5h 5v -5a 5 5, 0, 0, 0, -5 -5" transform="rotate(90,110,220)"/><rect x="155" y="215" width="10" height="10" transform="rotate(0,160,220)"/><rect x="165" y="215" width="10" height="10" transform="rotate(0,170,220)"/><rect x="175" y="215" width="10" height="10" transform="rotate(0,180,220)"/><rect x="185" y="215" width="10" height="10" transform="rotate(0,190,220)"/><rect x="195" y="215" width="10" height="10" transform="rotate(0,200,220)"/><rect x="205" y="215" width="10" height="10" transform="rotate(0,210,220)"/><rect x="245" y="215" width="10" height="10" transform="rotate(0,250,220)"/><path d="M 265 215v 10h 10a 10 10, 0, 0, 0, -10 -10" transform="rotate(-90,270,220)"/><rect x="275" y="215" width="10" height="10" transform="rotate(0,280,220)"/><rect x="285" y="215" width="10" height="10" transform="rotate(0,290,220)"/><path d="M 125 225v 10h 10a 10 10, 0, 0, 0, -10 -10" transform="rotate(-90,130,230)"/><rect x="135" y="225" width="10" height="10" transform="rotate(0,140,230)"/><rect x="155" y="225" width="10" height="10" transform="rotate(0,160,230)"/><path d="M 165 225v 10h 10a 10 10, 0, 0, 0, -10 -10" transform="rotate(90,170,230)"/><rect x="185" y="225" width="10" height="10" transform="rotate(0,190,230)"/><rect x="195" y="225" width="10" height="10" transform="rotate(0,200,230)"/><rect x="205" y="225" width="10" height="10" transform="rotate(0,210,230)"/><path d="M 225 225v 5a 5 5, 0, 0, 0, 5 5h 5v -5a 5 5, 0, 0, 0, -5 -5" transform="rotate(90,230,230)"/><rect x="245" y="225" width="10" height="10" transform="rotate(0,250,230)"/><rect x="285" y="225" width="10" height="10" transform="rotate(0,290,230)"/><path d="M 95 235v 5a 5 5, 0, 0, 0, 5 5h 5v -5a 5 5, 0, 0, 0, -5 -5" transform="rotate(90,100,240)"/><rect x="125" y="235" width="10" height="10" transform="rotate(0,130,240)"/><rect x="135" y="235" width="10" height="10" transform="rotate(0,140,240)"/><rect x="195" y="235" width="10" height="10" transform="rotate(0,200,240)"/><rect x="205" y="235" width="10" height="10" transform="rotate(0,210,240)"/><rect x="245" y="235" width="10" height="10" transform="rotate(0,250,240)"/><path d="M 255 235v 10h 10a 10 10, 0, 0, 0, -10 -10" transform="rotate(90,260,240)"/><path d="M 285 235v 10h 10a 10 10, 0, 0, 0, -10 -10" transform="rotate(90,290,240)"/><path d="M 85 245v 5a 5 5, 0, 0, 0, 5 5h 5v -5a 5 5, 0, 0, 0, -5 -5" transform="rotate(90,90,250)"/><path d="M 105 245v 5a 5 5, 0, 0, 0, 5 5h 5v -5a 5 5, 0, 0, 0, -5 -5" transform="rotate(90,110,250)"/><rect x="125" y="245" width="10" height="10" transform="rotate(0,130,250)"/><rect x="135" y="245" width="10" height="10" transform="rotate(0,140,250)"/><rect x="145" y="245" width="10" height="10" transform="rotate(0,150,250)"/><rect x="155" y="245" width="10" height="10" transform="rotate(0,160,250)"/><path d="M 165 245v 10h 10a 10 10, 0, 0, 0, -10 -10" transform="rotate(90,170,250)"/><rect x="195" y="245" width="10" height="10" transform="rotate(0,200,250)"/><rect x="205" y="245" width="10" height="10" transform="rotate(0,210,250)"/><rect x="215" y="245" width="10" height="10" transform="rotate(0,220,250)"/><rect x="225" y="245" width="10" height="10" transform="rotate(0,230,250)"/><rect x="235" y="245" width="10" height="10" transform="rotate(0,240,250)"/><path d="M 245 245v 10h 10a 10 10, 0, 0, 0, -10 -10" transform="rotate(90,250,250)"/><path d="M 275 245v 10h 10a 10 10, 0, 0, 0, -10 -10" transform="rotate(-90,280,250)"/><path d="M 95 255v 5a 5 5, 0, 0, 0, 5 5h 5v -5a 5 5, 0, 0, 0, -5 -5" transform="rotate(90,100,260)"/><rect x="125" y="255" width="10" height="10" transform="rotate(0,130,260)"/><path d="M 175 255v 10h 10a 10 10, 0, 0, 0, -10 -10" transform="rotate(-90,180,260)"/><rect x="185" y="255" width="10" height="10" transform="rotate(0,190,260)"/><path d="M 235 255v 10h 10a 10 10, 0, 0, 0, -10 -10" transform="rotate(90,240,260)"/><path d="M 255 255v 10h 10a 10 10, 0, 0, 0, -10 -10" transform="rotate(-90,260,260)"/><rect x="265" y="255" width="10" height="10" transform="rotate(0,270,260)"/><rect x="275" y="255" width="10" height="10" transform="rotate(0,280,260)"/><path d="M 105 265v 10h 10a 10 10, 0, 0, 0, -10 -10" transform="rotate(-90,110,270)"/><path d="M 125 265v 10h 10a 10 10, 0, 0, 0, -10 -10" transform="rotate(90,130,270)"/><path d="M 145 265v 10h 10a 10 10, 0, 0, 0, -10 -10" transform="rotate(-90,150,270)"/><rect x="155" y="265" width="10" height="10" transform="rotate(0,160,270)"/><rect x="185" y="265" width="10" height="10" transform="rotate(0,190,270)"/><rect x="195" y="265" width="10" height="10" transform="rotate(0,200,270)"/><rect x="205" y="265" width="10" height="10" transform="rotate(0,210,270)"/><path d="M 215 265v 10h 10a 10 10, 0, 0, 0, -10 -10" transform="rotate(90,220,270)"/><rect x="265" y="265" width="10" height="10" transform="rotate(0,270,270)"/><rect x="275" y="265" width="10" height="10" transform="rotate(0,280,270)"/><rect x="285" y="265" width="10" height="10" transform="rotate(0,290,270)"/><path d="M 85 275v 10h 10a 10 10, 0, 0, 0, -10 -10" transform="rotate(-90,90,280)"/><rect x="95" y="275" width="10" height="10" transform="rotate(0,100,280)"/><rect x="105" y="275" width="10" height="10" transform="rotate(0,110,280)"/><rect x="115" y="275" width="10" height="10" transform="rotate(0,120,280)"/><path d="M 135 275v 10h 10a 10 10, 0, 0, 0, -10 -10" transform="rotate(-90,140,280)"/><rect x="145" y="275" width="10" height="10" transform="rotate(0,150,280)"/><rect x="155" y="275" width="10" height="10" transform="rotate(0,160,280)"/><rect x="165" y="275" width="10" height="10" transform="rotate(0,170,280)"/><rect x="175" y="275" width="10" height="10" transform="rotate(0,180,280)"/><path d="M 235 275v 5a 5 5, 0, 0, 0, 5 5h 5v -5a 5 5, 0, 0, 0, -5 -5" transform="rotate(90,240,280)"/><path d="M 255 275v 10h 10a 10 10, 0, 0, 0, -10 -10" transform="rotate(-90,260,280)"/><rect x="275" y="275" width="10" height="10" transform="rotate(0,280,280)"/><path d="M 285 275v 10h 10a 10 10, 0, 0, 0, -10 -10" transform="rotate(90,290,280)"/><path d="M 95 285v 10h 10a 10 10, 0, 0, 0, -10 -10" transform="rotate(90,100,290)"/><rect x="115" y="285" width="10" height="10" transform="rotate(0,120,290)"/><rect x="125" y="285" width="10" height="10" transform="rotate(0,130,290)"/><path d="M 135 285v 10h 10a 10 10, 0, 0, 0, -10 -10" transform="rotate(90,140,290)"/><path d="M 175 285v 10h 10a 10 10, 0, 0, 0, -10 -10" transform="rotate(90,180,290)"/><path d="M 225 285v 5a 5 5, 0, 0, 0, 5 5h 5v -5a 5 5, 0, 0, 0, -5 -5" transform="rotate(90,230,290)"/><path d="M 245 285v 10h 10a 10 10, 0, 0, 0, -10 -10" transform="rotate(-90,250,290)"/><path d="M 255 285v 10h 10a 10 10, 0, 0, 0, -10 -10" transform="rotate(90,260,290)"/><path d="M 275 285v 10h 10a 10 10, 0, 0, 0, -10 -10" transform="rotate(90,280,290)"/></clipPath><linearGradient id="dot-color-2" gradientUnits="userSpaceOnUse" x1="0" y1="0" x2="300" y2="300"><stop offset="0%" stop-color="#8B5CF6"/><stop offset="100%" stop-color="#EC4899"/></linearGradient><clipPath id="clip-path-corners-square-color-0-0-2"><path clip-rule="evenodd" d="M 5 30v 20a 25 25, 0, 0, 0, 25 25h 20a 25 25, 0, 0, 0, 25 -25v -20a 25 25, 0, 0, 0, -25 -25h -20a 25 25, 0, 0, 0, -25 25M 30 15h 20a 15 15, 0, 0, 1, 15 15v 20a 15 15, 0, 0, 1, -15 15h -20a 15 15, 0, 0, 1, -15 -15v -20a 15 15, 0, 0, 1, 15 -15" transform="rotate(0,40,40)"/><path d="M 25 25v 10h 10a 10 10, 0, 0, 0, -10 -10" transform="rotate(-90,30,30)"/><rect x="35" y="25" width="10" height="10" transform="rotate(0,40,30)"/><rect x="45" y="25" width="10" height="10" transform="rotate(0,50,30)"/><rect x="25" y="35" width="10" height="10" transform="rotate(0,30,40)"/><rect x="35" y="35" width="10" height="10" transform="rotate(0,40,40)"/><rect x="45" y="35" width="10" height="10" transform="rotate(0,50,40)"/><rect x="25" y="45" width="10" height="10" transform="rotate(0,30,50)"/><rect x="35" y="45" width="10" height="10" transform="rotate(0,40,50)"/><path d="M 45 45v 10h 10a 10 10, 0, 0, 0, -10 -10" transform="rotate(90,50,50)"/></clipPath><clipPath id="clip-path-corners-square-color-1-0-2"><path clip-rule="evenodd" d="M 225 30v 20a 25 25, 0, 0, 0, 25 25h 20a 25 25, 0, 0, 0, 25 -25v -20a 25 25, 0, 0, 0, -25 -25h -20a 25 25, 0, 0, 0, -25 25M 250 15h 20a 15 15, 0, 0, 1, 15 15v 20a 15 15, 0, 0, 1, -15 15h -20a 15 15, 0, 0, 1, -15 -15v -20a 15 15, 0, 0, 1, 15 -15" transform="rotate(90,260,40)"/><path d="M 245 25v 10h 10a 10 10, 0, 0, 0, -10 -10" transform="rotate(-90,250,30)"/><rect x="255" y="25" width="10" height="10" transform="rotate(0,260,30)"/><rect x="265" y="25" width="10" height="10" transform="rotate(0,270,30)"/><rect x="245" y="35" width="10" height="10" transform="rotate(0,250,40)"/><rect x="255" y="35" width="10" height="10" transform="rotate(0,260,40)"/><rect x="265" y="35" width="10" height="10" transform="rotate(0,270,40)"/><rect x="245" y="45" width="10" height="10" transform="rotate(0,250,50)"/><rect x="255" y="45" width="10" height="10" transform="rotate(0,260,50)"/><path d="M 265 45v 10h 10a 10 10, 0, 0, 0, -10 -10" transform="rotate(90,270,50)"/></clipPath><clipPath id="clip-path-corners-square-color-0-1-2"><path clip-rule="evenodd" d="M 5 250v 20a 25 25, 0, 0, 0, 25 25h 20a 25 25, 0, 0, 0, 25 -25v -20a 25 25, 0, 0, 0, -25 -25h -20a 25 25, 0, 0, 0, -25 25M 30 235h 20a 15 15, 0, 0, 1, 15 15v 20a 15 15, 0, 0, 1, -15 15h -20a 15 15, 0, 0, 1, -15 -15v -20a 15 15, 0, 0, 1, 15 -15" transform="rotate(-90,40,260)"/><path d="M 25 245v 10h 10a 10 10, 0, 0, 0, -10 -10" transform="rotate(-90,30,250)"/><rect x="35" y="245" width="10" height="10" transform="rotate(0,40,250)"/><rect x="45" y="245" width="10" height="10" transform="rotate(0,50,250)"/><rect x="25" y="255" width="10" height="10" transform="rotate(0,30,260)"/><rect x="35" y="255" width="10" height="10" transform="rotate(0,40,260)"/><rect x="45" y="255" width="10" height="10" transform="rotate(0,50,260)"/><rect x="25" y="265" width="10" height="10" transform="rotate(0,30,270)"/><rect x="35" y="265" width="10" height="10" transform="rotate(0,40,270)"/><path d="M 45 265v 10h 10a 10 10, 0, 0, 0, -10 -10" transform="rotate(90,50,270)"/></clipPath></defs><rect x="0" y="0" height="300" width="300" clip-path="url('#clip-path-background-color-2')" fill="#FAF5FF"/><rect x="0" y="0" height="300" width="300" clip-path="url('#clip-path-dot-color-2')" fill="url('#dot-color-2')"/><rect x="5" y="5" height="70" width="70" clip-path="url('#clip-path-corners-square-color-0-0-2')" fill="#7C3AED"/><rect x="225" y="5" height="70" width="70" clip-path="url('#clip-path-corners-square-color-1-0-2')" fill="#7C3AED"/><rect x="5" y="225" height="70" width="70" clip-path="url('#clip-path-corners-square-color-0-1-2')" fill="#7C3AED"/></svg>