<?xml version="1.0" standalone="no"?>
<svg width="300" height="300" xmlns:xlink="http://www.w3.org/1999/xlink" viewBox="0 0 300 300" xmlns="http://www.w3.org/2000/svg"><defs><clipPath id="clip-path-background-color-1"><rect x="0" y="0" width="300" height="300"/></clipPath><clipPath id="clip-path-dot-color-1"><circle cx="104.5" cy="5.5" r="4.5" transform="rotate(0,104.5,5.5)"/><path d="M 118 1v 9h 4.5a 4.5 4.5, 0, 0, 0, 0 -9" transform="rotate(180,122.5,5.5)"/><path d="M 127 1v 9h 4.5a 4.5 4.5, 0, 0, 0, 0 -9" transform="rotate(0,131.5,5.5)"/><path d="M 172 1v 9h 4.5a 4.5 4.5, 0, 0, 0, 0 -9" transform="rotate(180,176.5,5.5)"/><rect x="181" y="1" width="9" height="9" transform="rotate(0,185.5,5.5)"/><path d="M 190 1v 9h 4.5a 4.5 4.5, 0, 0, 0, 0 -9" transform="rotate(0,194.5,5.5)"/><path d="M 208 1v 9h 4.5a 4.5 4.5, 0, 0, 0, 0 -9" transform="rotate(-90,212.5,5.5)"/><path d="M 73 10v 9h 4.5a 4.5 4.5, 0, 0, 0, 0 -9" transform="rotate(-90,77.5,14.5)"/><circle cx="113.5" cy="14.5" r="4.5" transform="rotate(0,113.5,14.5)"/><circle cx="158.5" cy="14.5" r="4.5" transform="rotate(0,158.5,14.5)"/><path d="M 208 10v 9h 9v -4.5a 4.5 4.5, 0, 0, 0, -4.5 -4.5" transform="rotate(180,212.5,14.5)"/><path d="M 217 10v 9h 9v -4.5a 4.5 4.5, 0, 0, 0, -4.5 -4.5" transform="rotate(0,221.5,14.5)"/><path d="M 73 19v 9h 9v -4.5a 4.5 4.5, 0, 0, 0, -4.5 -4.5" transform="rotate(180,77.5,23.5)"/><path d="M 82 19v 9h 4.5a 4.5 4.5, 0, 0, 0, 0 -9" transform="rotate(0,86.5,23.5)"/><path d="M 100 19v 9h 4.5a 4.5 4.5, 0, 0, 0, 0 -9" transform="rotate(-90,104.5,23.5)"/><circle cx="140.5" cy="23.5" r="4.5" transform="rotate(0,140.5,23.5)"/><path d="M 163 19v 9h 4.5a 4.5 4.5, 0, 0, 0, 0 -9" transform="rotate(-90,167.5,23.5)"/><rect x="217" y="19" width="9" height="9" transform="rotate(0,221.5,23.5)"/><path d="M 91 28v 9h 4.5a 4.5 4.5, 0, 0, 0, 0 -9" transform="rotate(180,95.5,32.5)"/><path d="M 100 28v 9h 9v -4.5a 4.5 4.5, 0, 0, 0, -4.5 -4.5" transform="rotate(90,104.5,32.5)"/><rect x="163" y="28" width="9" height="9" transform="rotate(0,167.5,32.5)"/><circle cx="194.5" cy="32.5" r="4.5" transform="rotate(0,194.5,32.5)"/><rect x="217" y="28" width="9" height="9" transform="rotate(0,221.5,32.5)"/><path d="M 118 37v 9h 4.5a 4.5 4.5, 0, 0, 0, 0 -9" transform="rotate(180,122.5,41.5)"/><path d="M 127 37v 9h 4.5a 4.5 4.5, 0, 0, 0, 0 -9" transform="rotate(0,131.5,41.5)"/><path d="M 145 37v 9h 9v -4.5a 4.5 4.5, 0, 0, 0, -4.5 -4.5" transform="rotate(-90,149.5,41.5)"/><rect x="154" y="37" width="9" height="9" transform="rotate(0,158.5,41.5)"/><rect x="163" y="37" width="9" height="9" transform="rotate(0,167.5,41.5)"/><path d="M 199 37v 9h 9v -4.5a 4.5 4.5, 0, 0, 0, -4.5 -4.5" transform="rotate(-90,203.5,41.5)"/><rect x="208" y="37" width="9" height="9" transform="rotate(0,212.5,41.5)"/><path d="M 217 37v 9h 9v -4.5a 4.5 4.5, 0, 0, 0, -4.5 -4.5" transform="rotate(90,221.5,41.5)"/><path d="M 82 46v 9h 4.5a 4.5 4.5, 0, 0, 0, 0 -9" transform="rotate(180,86.5,50.5)"/><path d="M 91 46v 9h 9v -4.5a 4.5 4.5, 0, 0, 0, -4.5 -4.5" transform="rotate(0,95.5,50.5)"/><rect x="145" y="46" width="9" height="9" transform="rotate(0,149.5,50.5)"/><rect x="163" y="46" width="9" height="9" transform="rotate(0,167.5,50.5)"/><path d="M 190 46v 9h 4.5a 4.5 4.5, 0, 0, 0, 0 -9" transform="rotate(180,194.5,50.5)"/><rect x="199" y="46" width="9" height="9" transform="rotate(0,203.5,50.5)"/><path d="M 208 46v 9h 9v -4.5a 4.5 4.5, 0, 0, 0, -4.5 -4.5" transform="rotate(90,212.5,50.5)"/><circle cx="77.5" cy="59.5" r="4.5" transform="rotate(0,77.5,59.5)"/><path d="M 91 55v 9h 4.5a 4.5 4.5, 0, 0, 0, 0 -9" transform="rotate(90,95.5,59.5)"/><circle cx="113.5" cy="59.5" r="4.5" transform="rotate(0,113.5,59.5)"/><path d="M 127 55v 9h 4.5a 4.5 4.5, 0, 0, 0, 0 -9" transform="rotate(-90,131.5,59.5)"/><path d="M 145 55v 9h 4.5a 4.5 4.5, 0, 0, 0, 0 -9" transform="rotate(90,149.5,59.5)"/><rect x="163" y="55" width="9" height="9" transform="rotate(0,167.5,59.5)"/><circle cx="185.5" cy="59.5" r="4.5" transform="rotate(0,185.5,59.5)"/><path d="M 199 55v 9h 4.5a 4.5 4.5, 0, 0, 0, 0 -9" transform="rotate(90,203.5,59.5)"/><path d="M 217 55v 9h 4.5a 4.5 4.5, 0, 0, 0, 0 -9" transform="rotate(-90,221.5,59.5)"/><circle cx="104.5" cy="68.5" r="4.5" transform="rotate(0,104.5,68.5)"/><rect x="127" y="64" width="9" height="9" transform="rotate(0,131.5,68.5)"/><path d="M 154 64v 9h 9v -4.5a 4.5 4.5, 0, 0, 0, -4.5 -4.5" transform="rotate(-90,158.5,68.5)"/><rect x="163" y="64" width="9" height="9" transform="rotate(0,167.5,68.5)"/><path d="M 172 64v 9h 4.5a 4.5 4.5, 0, 0, 0, 0 -9" transform="rotate(0,176.5,68.5)"/><rect x="217" y="64" width="9" height="9" transform="rotate(0,221.5,68.5)"/><path d="M 10 73v 9h 4.5a 4.5 4.5, 0, 0, 0, 0 -9" transform="rotate(180,14.5,77.5)"/><rect x="19" y="73" width="9" height="9" transform="rotate(0,23.5,77.5)"/><path d="M 28 73v 9h 4.5a 4.5 4.5, 0, 0, 0, 0 -9" transform="rotate(0,32.5,77.5)"/><path d="M 46 73v 9h 9v -4.5a 4.5 4.5, 0, 0, 0, -4.5 -4.5" transform="rotate(-90,50.5,77.5)"/><path d="M 55 73v 9h 4.5a 4.5 4.5, 0, 0, 0, 0 -9" transform="rotate(0,59.5,77.5)"/><path d="M 82 73v 9h 4.5a 4.5 4.5, 0, 0, 0, 0 -9" transform="rotate(180,86.5,77.5)"/><path d="M 91 73v 9h 9v -4.5a 4.5 4.5, 0, 0, 0, -4.5 -4.5" transform="rotate(0,95.5,77.5)"/><path d="M 127 73v 9h 4.5a 4.5 4.5, 0, 0, 0, 0 -9" transform="rotate(90,131.5,77.5)"/><rect x="154" y="73" width="9" height="9" transform="rotate(0,158.5,77.5)"/><path d="M 163 73v 9h 9v -4.5a 4.5 4.5, 0, 0, 0, -4.5 -4.5" transform="rotate(90,167.5,77.5)"/><path d="M 190 73v 9h 4.5a 4.5 4.5, 0, 0, 0, 0 -9" transform="rotate(180,194.5,77.5)"/><rect x="199" y="73" width="9" height="9" transform="rotate(0,203.5,77.5)"/><rect x="208" y="73" width="9" height="9" transform="rotate(0,212.5,77.5)"/><path d="M 217 73v 9h 9v -4.5a 4.5 4.5, 0, 0, 0, -4.5 -4.5" transform="rotate(90,221.5,77.5)"/><path d="M 271 73v 9h 9v -4.5a 4.5 4.5, 0, 0, 0, -4.5 -4.5" transform="rotate(-90,275.5,77.5)"/><path d="M 280 73v 9h 4.5a 4.5 4.5, 0, 0, 0, 0 -9" transform="rotate(0,284.5,77.5)"/><rect x="19" y="82" width="9" height="9" transform="rotate(0,23.5,86.5)"/><rect x="46" y="82" width="9" height="9" transform="rotate(0,50.5,86.5)"/><path d="M 73 82v 9h 4.5a 4.5 4.5, 0, 0, 0, 0 -9" transform="rotate(-90,77.5,86.5)"/><rect x="91" y="82" width="9" height="9" transform="rotate(0,95.5,86.5)"/><path d="M 109 82v 9h 4.5a 4.5 4.5, 0, 0, 0, 0 -9" transform="rotate(-90,113.5,86.5)"/><path d="M 145 82v 9h 4.5a 4.5 4.5, 0, 0, 0, 0 -9" transform="rotate(180,149.5,86.5)"/><path d="M 154 82v 9h 9v -4.5a 4.5 4.5, 0, 0, 0, -4.5 -4.5" transform="rotate(90,158.5,86.5)"/><path d="M 172 82v 9h 4.5a 4.5 4.5, 0, 0, 0, 0 -9" transform="rotate(180,176.5,86.5)"/><path d="M 181 82v 9h 4.5a 4.5 4.5, 0, 0, 0, 0 -9" transform="rotate(0,185.5,86.5)"/><rect x="208" y="82" width="9" height="9" transform="rotate(0,212.5,86.5)"/><path d="M 235 82v 9h 4.5a 4.5 4.5, 0, 0, 0, 0 -9" transform="rotate(180,239.5,86.5)"/><path d="M 244 82v 9h 9v -4.5a 4.5 4.5, 0, 0, 0, -4.5 -4.5" transform="rotate(0,248.5,86.5)"/><path d="M 262 82v 9h 9v -4.5a 4.5 4.5, 0, 0, 0, -4.5 -4.5" transform="rotate(-90,266.5,86.5)"/><path d="M 271 82v 9h 9v -4.5a 4.5 4.5, 0, 0, 0, -4.5 -4.5" transform="rotate(90,275.5,86.5)"/><path d="M 289 82v 9h 4.5a 4.5 4.5, 0, 0, 0, 0 -9" transform="rotate(-90,293.5,86.5)"/><path d="M 10 91v 9h 4.5a 4.5 4.5, 0, 0, 0, 0 -9" transform="rotate(180,14.5,95.5)"/><path d="M 19 91v 9h 9v -4.5a 4.5 4.5, 0, 0, 0, -4.5 -4.5" transform="rotate(90,23.5,95.5)"/><path d="M 37 91v 9h 9v -4.5a 4.5 4.5, 0, 0, 0, -4.5 -4.5" transform="rotate(-90,41.5,95.5)"/><rect x="46" y="91" width="9" height="9" transform="rotate(0,50.5,95.5)"/><path d="M 55 91v 9h 4.5a 4.5 4.5, 0, 0, 0, 0 -9" transform="rotate(0,59.5,95.5)"/><rect x="73" y="91" width="9" height="9" transform="rotate(0,77.5,95.5)"/><rect x="82" y="91" width="9" height="9" transform="rotate(0,86.5,95.5)"/><path d="M 91 91v 9h 9v -4.5a 4.5 4.5, 0, 0, 0, -4.5 -4.5" transform="rotate(90,95.5,95.5)"/><rect x="109" y="91" width="9" height="9" transform="rotate(0,113.5,95.5)"/><path d="M 136 91v 9h 4.5a 4.5 4.5, 0, 0, 0, 0 -9" transform="rotate(-90,140.5,95.5)"/><circle cx="167.5" cy="95.5" r="4.5" transform="rotate(0,167.5,95.5)"/><path d="M 190 91v 9h 9v -4.5a 4.5 4.5, 0, 0, 0, -4.5 -4.5" transform="rotate(-90,194.5,95.5)"/><rect x="199" y="91" width="9" height="9" transform="rotate(0,203.5,95.5)"/><path d="M 208 91v 9h 9v -4.5a 4.5 4.5, 0, 0, 0, -4.5 -4.5" transform="rotate(90,212.5,95.5)"/><rect x="244" y="91" width="9" height="9" transform="rotate(0,248.5,95.5)"/><rect x="253" y="91" width="9" height="9" transform="rotate(0,257.5,95.5)"/><rect x="262" y="91" width="9" height="9" transform="rotate(0,266.5,95.5)"/><path d="M 280 91v 9h 9v -4.5a 4.5 4.5, 0, 0, 0, -4.5 -4.5" transform="rotate(-90,284.5,95.5)"/><rect x="289" y="91" width="9" height="9" transform="rotate(0,293.5,95.5)"/><path d="M 1 100v 9h 4.5a 4.5 4.5, 0, 0, 0, 0 -9" transform="rotate(-90,5.5,104.5)"/><rect x="37" y="100" width="9" height="9" transform="rotate(0,41.5,104.5)"/><rect x="73" y="100" width="9" height="9" transform="rotate(0,77.5,104.5)"/><rect x="109" y="100" width="9" height="9" transform="rotate(0,113.5,104.5)"/><path d="M 118 100v 9h 4.5a 4.5 4.5, 0, 0, 0, 0 -9" transform="rotate(0,122.5,104.5)"/><rect x="136" y="100" width="9" height="9" transform="rotate(0,140.5,104.5)"/><rect x="145" y="100" width="9" height="9" transform="rotate(0,149.5,104.5)"/><path d="M 154 100v 9h 4.5a 4.5 4.5, 0, 0, 0, 0 -9" transform="rotate(0,158.5,104.5)"/><circle cx="176.5" cy="104.5" r="4.5" transform="rotate(0,176.5,104.5)"/><rect x="190" y="100" width="9" height="9" transform="rotate(0,194.5,104.5)"/><rect x="199" y="100" width="9" height="9" transform="rotate(0,203.5,104.5)"/><path d="M 235 100v 9h 4.5a 4.5 4.5, 0, 0, 0, 0 -9" transform="rotate(180,239.5,104.5)"/><rect x="244" y="100" width="9" height="9" transform="rotate(0,248.5,104.5)"/><rect x="262" y="100" width="9" height="9" transform="rotate(0,266.5,104.5)"/><rect x="280" y="100" width="9" height="9" transform="rotate(0,284.5,104.5)"/><rect x="289" y="100" width="9" height="9" transform="rotate(0,293.5,104.5)"/><path d="M 1 109v 9h 4.5a 4.5 4.5, 0, 0, 0, 0 -9" transform="rotate(90,5.5,113.5)"/><path d="M 19 109v 9h 4.5a 4.5 4.5, 0, 0, 0, 0 -9" transform="rotate(-90,23.5,113.5)"/><path d="M 37 109v 9h 9v -4.5a 4.5 4.5, 0, 0, 0, -4.5 -4.5" transform="rotate(180,41.5,113.5)"/><rect x="46" y="109" width="9" height="9" transform="rotate(0,50.5,113.5)"/><rect x="55" y="109" width="9" height="9" transform="rotate(0,59.5,113.5)"/><rect x="64" y="109" width="9" height="9" transform="rotate(0,68.5,113.5)"/><path d="M 73 109v 9h 9v -4.5a 4.5 4.5, 0, 0, 0, -4.5 -4.5" transform="rotate(90,77.5,113.5)"/><rect x="109" y="109" width="9" height="9" transform="rotate(0,113.5,113.5)"/><path d="M 127 109v 9h 9v -4.5a 4.5 4.5, 0, 0, 0, -4.5 -4.5" transform="rotate(-90,131.5,113.5)"/><rect x="136" y="109" width="9" height="9" transform="rotate(0,140.5,113.5)"/><path d="M 145 109v 9h 9v -4.5a 4.5 4.5, 0, 0, 0, -4.5 -4.5" transform="rotate(90,149.5,113.5)"/><path d="M 181 109v 9h 9v -4.5a 4.5 4.5, 0, 0, 0, -4.5 -4.5" transform="rotate(-90,185.5,113.5)"/><rect x="190" y="109" width="9" height="9" transform="rotate(0,194.5,113.5)"/><rect x="199" y="109" width="9" height="9" transform="rotate(0,203.5,113.5)"/><rect x="208" y="109" width="9" height="9" transform="rotate(0,212.5,113.5)"/><path d="M 217 109v 9h 4.5a 4.5 4.5, 0, 0, 0, 0 -9" transform="rotate(0,221.5,113.5)"/><rect x="244" y="109" width="9" height="9" transform="rotate(0,248.5,113.5)"/><rect x="253" y="109" width="9" height="9" transform="rotate(0,257.5,113.5)"/><path d="M 262 109v 9h 9v -4.5a 4.5 4.5, 0, 0, 0, -4.5 -4.5" transform="rotate(90,266.5,113.5)"/><rect x="280" y="109" width="9" height="9" transform="rotate(0,284.5,113.5)"/><path d="M 289 109v 9h 9v -4.5a 4.5 4.5, 0, 0, 0, -4.5 -4.5" transform="rotate(90,293.5,113.5)"/><path d="M 10 118v 9h 4.5a 4.5 4.5, 0, 0, 0, 0 -9" transform="rotate(180,14.5,122.5)"/><rect x="19" y="118" width="9" height="9" transform="rotate(0,23.5,122.5)"/><path d="M 28 118v 9h 9v -4.5a 4.5 4.5, 0, 0, 0, -4.5 -4.5" transform="rotate(0,32.5,122.5)"/><path d="M 46 118v 9h 4.5a 4.5 4.5, 0, 0, 0, 0 -9" transform="rotate(90,50.5,122.5)"/><path d="M 64 118v 9h 4.5a 4.5 4.5, 0, 0, 0, 0 -9" transform="rotate(90,68.5,122.5)"/><path d="M 82 118v 9h 4.5a 4.5 4.5, 0, 0, 0, 0 -9" transform="rotate(-90,86.5,122.5)"/><path d="M 109 118v 9h 4.5a 4.5 4.5, 0, 0, 0, 0 -9" transform="rotate(90,113.5,122.5)"/><rect x="127" y="118" width="9" height="9" transform="rotate(0,131.5,122.5)"/><path d="M 136 118v 9h 9v -4.5a 4.5 4.5, 0, 0, 0, -4.5 -4.5" transform="rotate(90,140.5,122.5)"/><path d="M 154 118v 9h 4.5a 4.5 4.5, 0, 0, 0, 0 -9" transform="rotate(-90,158.5,122.5)"/><rect x="181" y="118" width="9" height="9" transform="rotate(0,185.5,122.5)"/><rect x="190" y="118" width="9" height="9" transform="rotate(0,194.5,122.5)"/><path d="M 208 118v 9h 4.5a 4.5 4.5, 0, 0, 0, 0 -9" transform="rotate(90,212.5,122.5)"/><path d="M 244 118v 9h 4.5a 4.5 4.5, 0, 0, 0, 0 -9" transform="rotate(90,248.5,122.5)"/><path d="M 280 118v 9h 4.5a 4.5 4.5, 0, 0, 0, 0 -9" transform="rotate(90,284.5,122.5)"/><path d="M 1 127v 9h 4.5a 4.5 4.5, 0, 0, 0, 0 -9" transform="rotate(-90,5.5,131.5)"/><rect x="19" y="127" width="9" height="9" transform="rotate(0,23.5,131.5)"/><rect x="28" y="127" width="9" height="9" transform="rotate(0,32.5,131.5)"/><path d="M 37 127v 9h 9v -4.5a 4.5 4.5, 0, 0, 0, -4.5 -4.5" transform="rotate(0,41.5,131.5)"/><circle cx="59.5" cy="131.5" r="4.5" transform="rotate(0,59.5,131.5)"/><path d="M 82 127v 9h 9v -4.5a 4.5 4.5, 0, 0, 0, -4.5 -4.5" transform="rotate(180,86.5,131.5)"/><rect x="91" y="127" width="9" height="9" transform="rotate(0,95.5,131.5)"/><path d="M 100 127v 9h 4.5a 4.5 4.5, 0, 0, 0, 0 -9" transform="rotate(0,104.5,131.5)"/><path d="M 127 127v 9h 4.5a 4.5 4.5, 0, 0, 0, 0 -9" transform="rotate(90,131.5,131.5)"/><path d="M 145 127v 9h 4.5a 4.5 4.5, 0, 0, 0, 0 -9" transform="rotate(180,149.5,131.5)"/><rect x="154" y="127" width="9" height="9" transform="rotate(0,158.5,131.5)"/><rect x="163" y="127" width="9" height="9" transform="rotate(0,167.5,131.5)"/><rect x="172" y="127" width="9" height="9" transform="rotate(0,176.5,131.5)"/><rect x="181" y="127" width="9" height="9" transform="rotate(0,185.5,131.5)"/><rect x="190" y="127" width="9" height="9" transform="rotate(0,194.5,131.5)"/><path d="M 217 127v 9h 4.5a 4.5 4.5, 0, 0, 0, 0 -9" transform="rotate(-90,221.5,131.5)"/><path d="M 235 127v 9h 4.5a 4.5 4.5, 0, 0, 0, 0 -9" transform="rotate(-90,239.5,131.5)"/><path d="M 262 127v 9h 4.5a 4.5 4.5, 0, 0, 0, 0 -9" transform="rotate(-90,266.5,131.5)"/><rect x="1" y="136" width="9" height="9" transform="rotate(0,5.5,140.5)"/><rect x="10" y="136" width="9" height="9" transform="rotate(0,14.5,140.5)"/><rect x="19" y="136" width="9" height="9" transform="rotate(0,23.5,140.5)"/><rect x="28" y="136" width="9" height="9" transform="rotate(0,32.5,140.5)"/><path d="M 37 136v 9h 9v -4.5a 4.5 4.5, 0, 0, 0, -4.5 -4.5" transform="rotate(90,41.5,140.5)"/><path d="M 64 136v 9h 4.5a 4.5 4.5, 0, 0, 0, 0 -9" transform="rotate(180,68.5,140.5)"/><path d="M 73 136v 9h 4.5a 4.5 4.5, 0, 0, 0, 0 -9" transform="rotate(0,77.5,140.5)"/><rect x="91" y="136" width="9" height="9" transform="rotate(0,95.5,140.5)"/><path d="M 109 136v 9h 9v -4.5a 4.5 4.5, 0, 0, 0, -4.5 -4.5" transform="rotate(-90,113.5,140.5)"/><path d="M 118 136v 9h 4.5a 4.5 4.5, 0, 0, 0, 0 -9" transform="rotate(0,122.5,140.5)"/><rect x="154" y="136" width="9" height="9" transform="rotate(0,158.5,140.5)"/><path d="M 163 136v 9h 9v -4.5a 4.5 4.5, 0, 0, 0, -4.5 -4.5" transform="rotate(90,167.5,140.5)"/><rect x="190" y="136" width="9" height="9" transform="rotate(0,194.5,140.5)"/><path d="M 217 136v 9h 9v -4.5a 4.5 4.5, 0, 0, 0, -4.5 -4.5" transform="rotate(180,221.5,140.5)"/><rect x="226" y="136" width="9" height="9" transform="rotate(0,230.5,140.5)"/><rect x="235" y="136" width="9" height="9" transform="rotate(0,239.5,140.5)"/><path d="M 244 136v 9h 4.5a 4.5 4.5, 0, 0, 0, 0 -9" transform="rotate(0,248.5,140.5)"/><path d="M 262 136v 9h 9v -4.5a 4.5 4.5, 0, 0, 0, -4.5 -4.5" transform="rotate(180,266.5,140.5)"/><path d="M 271 136v 9h 9v -4.5a 4.5 4.5, 0, 0, 0, -4.5 -4.5" transform="rotate(0,275.5,140.5)"/><path d="M 1 145v 9h 9v -4.5a 4.5 4.5, 0, 0, 0, -4.5 -4.5" transform="rotate(180,5.5,149.5)"/><rect x="10" y="145" width="9" height="9" transform="rotate(0,14.5,149.5)"/><path d="M 19 145v 9h 9v -4.5a 4.5 4.5, 0, 0, 0, -4.5 -4.5" transform="rotate(90,23.5,149.5)"/><path d="M 46 145v 9h 9v -4.5a 4.5 4.5, 0, 0, 0, -4.5 -4.5" transform="rotate(-90,50.5,149.5)"/><path d="M 55 145v 9h 4.5a 4.5 4.5, 0, 0, 0, 0 -9" transform="rotate(0,59.5,149.5)"/><path d="M 91 145v 9h 9v -4.5a 4.5 4.5, 0, 0, 0, -4.5 -4.5" transform="rotate(180,95.5,149.5)"/><rect x="100" y="145" width="9" height="9" transform="rotate(0,104.5,149.5)"/><path d="M 109 145v 9h 9v -4.5a 4.5 4.5, 0, 0, 0, -4.5 -4.5" transform="rotate(90,113.5,149.5)"/><path d="M 127 145v 9h 4.5a 4.5 4.5, 0, 0, 0, 0 -9" transform="rotate(180,131.5,149.5)"/><path d="M 136 145v 9h 4.5a 4.5 4.5, 0, 0, 0, 0 -9" transform="rotate(0,140.5,149.5)"/><path d="M 154 145v 9h 4.5a 4.5 4.5, 0, 0, 0, 0 -9" transform="rotate(90,158.5,149.5)"/><path d="M 181 145v 9h 9v -4.5a 4.5 4.5, 0, 0, 0, -4.5 -4.5" transform="rotate(-90,185.5,149.5)"/><rect x="190" y="145" width="9" height="9" transform="rotate(0,194.5,149.5)"/><path d="M 199 145v 9h 9v -4.5a 4.5 4.5, 0, 0, 0, -4.5 -4.5" transform="rotate(0,203.5,149.5)"/><rect x="226" y="145" width="9" height="9" transform="rotate(0,230.5,149.5)"/><rect x="235" y="145" width="9" height="9" transform="rotate(0,239.5,149.5)"/><path d="M 253 145v 9h 4.5a 4.5 4.5, 0, 0, 0, 0 -9" transform="rotate(-90,257.5,149.5)"/><path d="M 271 145v 9h 4.5a 4.5 4.5, 0, 0, 0, 0 -9" transform="rotate(90,275.5,149.5)"/><path d="M 10 154v 9h 4.5a 4.5 4.5, 0, 0, 0, 0 -9" transform="rotate(90,14.5,158.5)"/><path d="M 28 154v 9h 9v -4.5a 4.5 4.5, 0, 0, 0, -4.5 -4.5" transform="rotate(-90,32.5,158.5)"/><rect x="37" y="154" width="9" height="9" transform="rotate(0,41.5,158.5)"/><path d="M 46 154v 9h 9v -4.5a 4.5 4.5, 0, 0, 0, -4.5 -4.5" transform="rotate(90,50.5,158.5)"/><path d="M 82 154v 9h 4.5a 4.5 4.5, 0, 0, 0, 0 -9" transform="rotate(-90,86.5,158.5)"/><rect x="100" y="154" width="9" height="9" transform="rotate(0,104.5,158.5)"/><circle cx="122.5" cy="158.5" r="4.5" transform="rotate(0,122.5,158.5)"/><circle cx="149.5" cy="158.5" r="4.5" transform="rotate(0,149.5,158.5)"/><circle cx="167.5" cy="158.5" r="4.5" transform="rotate(0,167.5,158.5)"/><rect x="181" y="154" width="9" height="9" transform="rotate(0,185.5,158.5)"/><path d="M 199 154v 9h 9v -4.5a 4.5 4.5, 0, 0, 0, -4.5 -4.5" transform="rotate(180,203.5,158.5)"/><rect x="208" y="154" width="9" height="9" transform="rotate(0,212.5,158.5)"/><rect x="217" y="154" width="9" height="9" transform="rotate(0,221.5,158.5)"/><rect x="226" y="154" width="9" height="9" transform="rotate(0,230.5,158.5)"/><rect x="235" y="154" width="9" height="9" transform="rotate(0,239.5,158.5)"/><rect x="253" y="154" width="9" height="9" transform="rotate(0,257.5,158.5)"/><path d="M 262 154v 9h 4.5a 4.5 4.5, 0, 0, 0, 0 -9" transform="rotate(0,266.5,158.5)"/><path d="M 280 154v 9h 9v -4.5a 4.5 4.5, 0, 0, 0, -4.5 -4.5" transform="rotate(-90,284.5,158.5)"/><path d="M 289 154v 9h 4.5a 4.5 4.5, 0, 0, 0, 0 -9" transform="rotate(0,293.5,158.5)"/><path d="M 1 163v 9h 4.5a 4.5 4.5, 0, 0, 0, 0 -9" transform="rotate(-90,5.5,167.5)"/><path d="M 19 163v 9h 4.5a 4.5 4.5, 0, 0, 0, 0 -9" transform="rotate(180,23.5,167.5)"/><rect x="28" y="163" width="9" height="9" transform="rotate(0,32.5,167.5)"/><path d="M 55 163v 9h 4.5a 4.5 4.5, 0, 0, 0, 0 -9" transform="rotate(180,59.5,167.5)"/><path d="M 64 163v 9h 9v -4.5a 4.5 4.5, 0, 0, 0, -4.5 -4.5" transform="rotate(0,68.5,167.5)"/><path d="M 82 163v 9h 9v -4.5a 4.5 4.5, 0, 0, 0, -4.5 -4.5" transform="rotate(180,86.5,167.5)"/><rect x="91" y="163" width="9" height="9" transform="rotate(0,95.5,167.5)"/><path d="M 100 163v 9h 9v -4.5a 4.5 4.5, 0, 0, 0, -4.5 -4.5" transform="rotate(90,104.5,167.5)"/><path d="M 127 163v 9h 4.5a 4.5 4.5, 0, 0, 0, 0 -9" transform="rotate(-90,131.5,167.5)"/><path d="M 181 163v 9h 9v -4.5a 4.5 4.5, 0, 0, 0, -4.5 -4.5" transform="rotate(180,185.5,167.5)"/><path d="M 190 163v 9h 4.5a 4.5 4.5, 0, 0, 0, 0 -9" transform="rotate(0,194.5,167.5)"/><rect x="217" y="163" width="9" height="9" transform="rotate(0,221.5,167.5)"/><rect x="226" y="163" width="9" height="9" transform="rotate(0,230.5,167.5)"/><rect x="235" y="163" width="9" height="9" transform="rotate(0,239.5,167.5)"/><rect x="244" y="163" width="9" height="9" transform="rotate(0,248.5,167.5)"/><rect x="253" y="163" width="9" height="9" transform="rotate(0,257.5,167.5)"/><path d="M 271 163v 9h 4.5a 4.5 4.5, 0, 0, 0, 0 -9" transform="rotate(180,275.5,167.5)"/><rect x="280" y="163" width="9" height="9" transform="rotate(0,284.5,167.5)"/><rect x="1" y="172" width="9" height="9" transform="rotate(0,5.5,176.5)"/><rect x="28" y="172" width="9" height="9" transform="rotate(0,32.5,176.5)"/><path d="M 46 172v 9h 4.5a 4.5 4.5, 0, 0, 0, 0 -9" transform="rotate(-90,50.5,176.5)"/><path d="M 64 172v 9h 9v -4.5a 4.5 4.5, 0, 0, 0, -4.5 -4.5" transform="rotate(180,68.5,176.5)"/><path d="M 73 172v 9h 4.5a 4.5 4.5, 0, 0, 0, 0 -9" transform="rotate(0,77.5,176.5)"/><path d="M 91 172v 9h 4.5a 4.5 4.5, 0, 0, 0, 0 -9" transform="rotate(90,95.5,176.5)"/><path d="M 109 172v 9h 9v -4.5a 4.5 4.5, 0, 0, 0, -4.5 -4.5" transform="rotate(-90,113.5,176.5)"/><rect x="118" y="172" width="9" height="9" transform="rotate(0,122.5,176.5)"/><rect x="127" y="172" width="9" height="9" transform="rotate(0,131.5,176.5)"/><rect x="136" y="172" width="9" height="9" transform="rotate(0,140.5,176.5)"/><rect x="145" y="172" width="9" height="9" transform="rotate(0,149.5,176.5)"/><rect x="154" y="172" width="9" height="9" transform="rotate(0,158.5,176.5)"/><rect x="163" y="172" width="9" height="9" transform="rotate(0,167.5,176.5)"/><path d="M 172 172v 9h 4.5a 4.5 4.5, 0, 0, 0, 0 -9" transform="rotate(0,176.5,176.5)"/><path d="M 199 172v 9h 9v -4.5a 4.5 4.5, 0, 0, 0, -4.5 -4.5" transform="rotate(-90,203.5,176.5)"/><rect x="208" y="172" width="9" height="9" transform="rotate(0,212.5,176.5)"/><rect x="217" y="172" width="9" height="9" transform="rotate(0,221.5,176.5)"/><path d="M 226 172v 9h 9v -4.5a 4.5 4.5, 0, 0, 0, -4.5 -4.5" transform="rotate(90,230.5,176.5)"/><path d="M 253 172v 9h 4.5a 4.5 4.5, 0, 0, 0, 0 -9" transform="rotate(90,257.5,176.5)"/><path d="M 280 172v 9h 9v -4.5a 4.5 4.5, 0, 0, 0, -4.5 -4.5" transform="rotate(180,284.5,176.5)"/><path d="M 289 172v 9h 4.5a 4.5 4.5, 0, 0, 0, 0 -9" transform="rotate(0,293.5,176.5)"/><rect x="1" y="181" width="9" height="9" transform="rotate(0,5.5,185.5)"/><rect x="28" y="181" width="9" height="9" transform="rotate(0,32.5,185.5)"/><path d="M 46 181v 9h 9v -4.5a 4.5 4.5, 0, 0, 0, -4.5 -4.5" transform="rotate(180,50.5,185.5)"/><path d="M 55 181v 9h 4.5a 4.5 4.5, 0, 0, 0, 0 -9" transform="rotate(0,59.5,185.5)"/><rect x="109" y="181" width="9" height="9" transform="rotate(0,113.5,185.5)"/><path d="M 145 181v 9h 9v -4.5a 4.5 4.5, 0, 0, 0, -4.5 -4.5" transform="rotate(180,149.5,185.5)"/><rect x="154" y="181" width="9" height="9" transform="rotate(0,158.5,185.5)"/><rect x="199" y="181" width="9" height="9" transform="rotate(0,203.5,185.5)"/><path d="M 217 181v 9h 4.5a 4.5 4.5, 0, 0, 0, 0 -9" transform="rotate(90,221.5,185.5)"/><circle cx="248.5" cy="185.5" r="4.5" transform="rotate(0,248.5,185.5)"/><path d="M 262 181v 9h 9v -4.5a 4.5 4.5, 0, 0, 0, -4.5 -4.5" transform="rotate(-90,266.5,185.5)"/><path d="M 271 181v 9h 9v -4.5a 4.5 4.5, 0, 0, 0, -4.5 -4.5" transform="rotate(0,275.5,185.5)"/><path d="M 1 190v 9h 9v -4.5a 4.5 4.5, 0, 0, 0, -4.5 -4.5" transform="rotate(180,5.5,194.5)"/><rect x="10" y="190" width="9" height="9" transform="rotate(0,14.5,194.5)"/><rect x="19" y="190" width="9" height="9" transform="rotate(0,23.5,194.5)"/><rect x="28" y="190" width="9" height="9" transform="rotate(0,32.5,194.5)"/><path d="M 37 190v 9h 4.5a 4.5 4.5, 0, 0, 0, 0 -9" transform="rotate(0,41.5,194.5)"/><path d="M 64 190v 9h 9v -4.5a 4.5 4.5, 0, 0, 0, -4.5 -4.5" transform="rotate(-90,68.5,194.5)"/><path d="M 73 190v 9h 4.5a 4.5 4.5, 0, 0, 0, 0 -9" transform="rotate(0,77.5,194.5)"/><rect x="109" y="190" width="9" height="9" transform="rotate(0,113.5,194.5)"/><circle cx="131.5" cy="194.5" r="4.5" transform="rotate(0,131.5,194.5)"/><path d="M 154 190v 9h 4.5a 4.5 4.5, 0, 0, 0, 0 -9" transform="rotate(90,158.5,194.5)"/><path d="M 181 190v 9h 9v -4.5a 4.5 4.5, 0, 0, 0, -4.5 -4.5" transform="rotate(-90,185.5,194.5)"/><rect x="190" y="190" width="9" height="9" transform="rotate(0,194.5,194.5)"/><rect x="199" y="190" width="9" height="9" transform="rotate(0,203.5,194.5)"/><path d="M 208 190v 9h 9v -4.5a 4.5 4.5, 0, 0, 0, -4.5 -4.5" transform="rotate(0,212.5,194.5)"/><path d="M 235 190v 9h 4.5a 4.5 4.5, 0, 0, 0, 0 -9" transform="rotate(-90,239.5,194.5)"/><rect x="262" y="190" width="9" height="9" transform="rotate(0,266.5,194.5)"/><path d="M 271 190v 9h 9v -4.5a 4.5 4.5, 0, 0, 0, -4.5 -4.5" transform="rotate(90,275.5,194.5)"/><path d="M 289 190v 9h 4.5a 4.5 4.5, 0, 0, 0, 0 -9" transform="rotate(-90,293.5,194.5)"/><path d="M 19 199v 9h 4.5a 4.5 4.5, 0, 0, 0, 0 -9" transform="rotate(90,23.5,203.5)"/><path d="M 46 199v 9h 9v -4.5a 4.5 4.5, 0, 0, 0, -4.5 -4.5" transform="rotate(-90,50.5,203.5)"/><rect x="55" y="199" width="9" height="9" transform="rotate(0,59.5,203.5)"/><rect x="64" y="199" width="9" height="9" transform="rotate(0,68.5,203.5)"/><path d="M 82 199v 9h 4.5a 4.5 4.5, 0, 0, 0, 0 -9" transform="rotate(180,86.5,203.5)"/><rect x="91" y="199" width="9" height="9" transform="rotate(0,95.5,203.5)"/><rect x="100" y="199" width="9" height="9" transform="rotate(0,104.5,203.5)"/><rect x="109" y="199" width="9" height="9" transform="rotate(0,113.5,203.5)"/><path d="M 118 199v 9h 4.5a 4.5 4.5, 0, 0, 0, 0 -9" transform="rotate(0,122.5,203.5)"/><circle cx="149.5" cy="203.5" r="4.5" transform="rotate(0,149.5,203.5)"/><path d="M 172 199v 9h 4.5a 4.5 4.5, 0, 0, 0, 0 -9" transform="rotate(180,176.5,203.5)"/><rect x="181" y="199" width="9" height="9" transform="rotate(0,185.5,203.5)"/><path d="M 190 199v 9h 9v -4.5a 4.5 4.5, 0, 0, 0, -4.5 -4.5" transform="rotate(90,194.5,203.5)"/><path d="M 208 199v 9h 9v -4.5a 4.5 4.5, 0, 0, 0, -4.5 -4.5" transform="rotate(180,212.5,203.5)"/><rect x="217" y="199" width="9" height="9" transform="rotate(0,221.5,203.5)"/><rect x="226" y="199" width="9" height="9" transform="rotate(0,230.5,203.5)"/><rect x="235" y="199" width="9" height="9" transform="rotate(0,239.5,203.5)"/><rect x="244" y="199" width="9" height="9" transform="rotate(0,248.5,203.5)"/><rect x="253" y="199" width="9" height="9" transform="rotate(0,257.5,203.5)"/><rect x="262" y="199" width="9" height="9" transform="rotate(0,266.5,203.5)"/><path d="M 280 199v 9h 4.5a 4.5 4.5, 0, 0, 0, 0 -9" transform="rotate(180,284.5,203.5)"/><rect x="289" y="199" width="9" height="9" transform="rotate(0,293.5,203.5)"/><circle cx="14.5" cy="212.5" r="4.5" transform="rotate(0,14.5,212.5)"/><circle cx="32.5" cy="212.5" r="4.5" transform="rotate(0,32.5,212.5)"/><path d="M 46 208v 9h 4.5a 4.5 4.5, 0, 0, 0, 0 -9" transform="rotate(90,50.5,212.5)"/><path d="M 64 208v 9h 4.5a 4.5 4.5, 0, 0, 0, 0 -9" transform="rotate(90,68.5,212.5)"/><path d="M 100 208v 9h 4.5a 4.5 4.5, 0, 0, 0, 0 -9" transform="rotate(90,104.5,212.5)"/><path d="M 127 208v 9h 4.5a 4.5 4.5, 0, 0, 0, 0 -9" transform="rotate(-90,131.5,212.5)"/><circle cx="158.5" cy="212.5" r="4.5" transform="rotate(0,158.5,212.5)"/><path d="M 181 208v 9h 4.5a 4.5 4.5, 0, 0, 0, 0 -9" transform="rotate(90,185.5,212.5)"/><rect x="217" y="208" width="9" height="9" transform="rotate(0,221.5,212.5)"/><rect x="235" y="208" width="9" height="9" transform="rotate(0,239.5,212.5)"/><rect x="244" y="208" width="9" height="9" transform="rotate(0,248.5,212.5)"/><rect x="262" y="208" width="9" height="9" transform="rotate(0,266.5,212.5)"/><path d="M 289 208v 9h 4.5a 4.5 4.5, 0, 0, 0, 0 -9" transform="rotate(90,293.5,212.5)"/><circle cx="5.5" cy="221.5" r="4.5" transform="rotate(0,5.5,221.5)"/><circle cx="59.5" cy="221.5" r="4.5" transform="rotate(0,59.5,221.5)"/><path d="M 73 217v 9h 9v -4.5a 4.5 4.5, 0, 0, 0, -4.5 -4.5" transform="rotate(-90,77.5,221.5)"/><rect x="82" y="217" width="9" height="9" transform="rotate(0,86.5,221.5)"/><path d="M 91 217v 9h 4.5a 4.5 4.5, 0, 0, 0, 0 -9" transform="rotate(0,95.5,221.5)"/><path d="M 118 217v 9h 4.5a 4.5 4.5, 0, 0, 0, 0 -9" transform="rotate(180,122.5,221.5)"/><rect x="127" y="217" width="9" height="9" transform="rotate(0,131.5,221.5)"/><path d="M 172 217v 9h 4.5a 4.5 4.5, 0, 0, 0, 0 -9" transform="rotate(-90,176.5,221.5)"/><circle cx="203.5" cy="221.5" r="4.5" transform="rotate(0,203.5,221.5)"/><rect x="217" y="217" width="9" height="9" transform="rotate(0,221.5,221.5)"/><rect x="226" y="217" width="9" height="9" transform="rotate(0,230.5,221.5)"/><rect x="235" y="217" width="9" height="9" transform="rotate(0,239.5,221.5)"/><rect x="244" y="217" width="9" height="9" transform="rotate(0,248.5,221.5)"/><rect x="253" y="217" width="9" height="9" transform="rotate(0,257.5,221.5)"/><rect x="262" y="217" width="9" height="9" transform="rotate(0,266.5,221.5)"/><path d="M 73 226v 9h 9v -4.5a 4.5 4.5, 0, 0, 0, -4.5 -4.5" transform="rotate(180,77.5,230.5)"/><rect x="82" y="226" width="9" height="9" transform="rotate(0,86.5,230.5)"/><path d="M 100 226v 9h 4.5a 4.5 4.5, 0, 0, 0, 0 -9" transform="rotate(180,104.5,230.5)"/><path d="M 109 226v 9h 4.5a 4.5 4.5, 0, 0, 0, 0 -9" transform="rotate(0,113.5,230.5)"/><rect x="127" y="226" width="9" height="9" transform="rotate(0,131.5,230.5)"/><path d="M 145 226v 9h 4.5a 4.5 4.5, 0, 0, 0, 0 -9" transform="rotate(-90,149.5,230.5)"/><path d="M 163 226v 9h 9v -4.5a 4.5 4.5, 0, 0, 0, -4.5 -4.5" transform="rotate(-90,167.5,230.5)"/><rect x="172" y="226" width="9" height="9" transform="rotate(0,176.5,230.5)"/><rect x="181" y="226" width="9" height="9" transform="rotate(0,185.5,230.5)"/><path d="M 190 226v 9h 9v -4.5a 4.5 4.5, 0, 0, 0, -4.5 -4.5" transform="rotate(0,194.5,230.5)"/><rect x="217" y="226" width="9" height="9" transform="rotate(0,221.5,230.5)"/><rect x="253" y="226" width="9" height="9" transform="rotate(0,257.5,230.5)"/><path d="M 262 226v 9h 9v -4.5a 4.5 4.5, 0, 0, 0, -4.5 -4.5" transform="rotate(90,266.5,230.5)"/><rect x="82" y="235" width="9" height="9" transform="rotate(0,86.5,239.5)"/><path d="M 118 235v 9h 9v -4.5a 4.5 4.5, 0, 0, 0, -4.5 -4.5" transform="rotate(-90,122.5,239.5)"/><rect x="127" y="235" width="9" height="9" transform="rotate(0,131.5,239.5)"/><rect x="136" y="235" width="9" height="9" transform="rotate(0,140.5,239.5)"/><rect x="145" y="235" width="9" height="9" transform="rotate(0,149.5,239.5)"/><rect x="154" y="235" width="9" height="9" transform="rotate(0,158.5,239.5)"/><rect x="163" y="235" width="9" height="9" transform="rotate(0,167.5,239.5)"/><rect x="172" y="235" width="9" height="9" transform="rotate(0,176.5,239.5)"/><rect x="181" y="235" width="9" height="9" transform="rotate(0,185.5,239.5)"/><path d="M 190 235v 9h 9v -4.5a 4.5 4.5, 0, 0, 0, -4.5 -4.5" transform="rotate(90,194.5,239.5)"/><path d="M 208 235v 9h 9v -4.5a 4.5 4.5, 0, 0, 0, -4.5 -4.5" transform="rotate(-90,212.5,239.5)"/><rect x="217" y="235" width="9" height="9" transform="rotate(0,221.5,239.5)"/><circle cx="239.5" cy="239.5" r="4.5" transform="rotate(0,239.5,239.5)"/><rect x="253" y="235" width="9" height="9" transform="rotate(0,257.5,239.5)"/><path d="M 73 244v 9h 4.5a 4.5 4.5, 0, 0, 0, 0 -9" transform="rotate(180,77.5,248.5)"/><path d="M 82 244v 9h 9v -4.5a 4.5 4.5, 0, 0, 0, -4.5 -4.5" transform="rotate(90,86.5,248.5)"/><rect x="118" y="244" width="9" height="9" transform="rotate(0,122.5,248.5)"/><path d="M 181 244v 9h 4.5a 4.5 4.5, 0, 0, 0, 0 -9" transform="rotate(90,185.5,248.5)"/><rect x="208" y="244" width="9" height="9" transform="rotate(0,212.5,248.5)"/><rect x="217" y="244" width="9" height="9" transform="rotate(0,221.5,248.5)"/><rect x="253" y="244" width="9" height="9" transform="rotate(0,257.5,248.5)"/><rect x="262" y="244" width="9" height="9" transform="rotate(0,266.5,248.5)"/><path d="M 271 244v 9h 9v -4.5a 4.5 4.5, 0, 0, 0, -4.5 -4.5" transform="rotate(0,275.5,248.5)"/><path d="M 91 253v 9h 4.5a 4.5 4.5, 0, 0, 0, 0 -9" transform="rotate(180,95.5,257.5)"/><path d="M 100 253v 9h 9v -4.5a 4.5 4.5, 0, 0, 0, -4.5 -4.5" transform="rotate(0,104.5,257.5)"/><rect x="118" y="253" width="9" height="9" transform="rotate(0,122.5,257.5)"/><path d="M 127 253v 9h 4.5a 4.5 4.5, 0, 0, 0, 0 -9" transform="rotate(0,131.5,257.5)"/><path d="M 145 253v 9h 4.5a 4.5 4.5, 0, 0, 0, 0 -9" transform="rotate(-90,149.5,257.5)"/><path d="M 163 253v 9h 9v -4.5a 4.5 4.5, 0, 0, 0, -4.5 -4.5" transform="rotate(-90,167.5,257.5)"/><path d="M 172 253v 9h 9v -4.5a 4.5 4.5, 0, 0, 0, -4.5 -4.5" transform="rotate(0,176.5,257.5)"/><path d="M 199 253v 9h 9v -4.5a 4.5 4.5, 0, 0, 0, -4.5 -4.5" transform="rotate(-90,203.5,257.5)"/><rect x="208" y="253" width="9" height="9" transform="rotate(0,212.5,257.5)"/><rect x="217" y="253" width="9" height="9" transform="rotate(0,221.5,257.5)"/><rect x="226" y="253" width="9" height="9" transform="rotate(0,230.5,257.5)"/><rect x="235" y="253" width="9" height="9" transform="rotate(0,239.5,257.5)"/><rect x="244" y="253" width="9" height="9" transform="rotate(0,248.5,257.5)"/><path d="M 253 253v 9h 9v -4.5a 4.5 4.5, 0, 0, 0, -4.5 -4.5" transform="rotate(90,257.5,257.5)"/><path d="M 271 253v 9h 9v -4.5a 4.5 4.5, 0, 0, 0, -4.5 -4.5" transform="rotate(180,275.5,257.5)"/><rect x="280" y="253" width="9" height="9" transform="rotate(0,284.5,257.5)"/><path d="M 289 253v 9h 9v -4.5a 4.5 4.5, 0, 0, 0, -4.5 -4.5" transform="rotate(0,293.5,257.5)"/><path d="M 73 262v 9h 9v -4.5a 4.5 4.5, 0, 0, 0, -4.5 -4.5" transform="rotate(-90,77.5,266.5)"/><path d="M 82 262v 9h 4.5a 4.5 4.5, 0, 0, 0, 0 -9" transform="rotate(0,86.5,266.5)"/><path d="M 100 262v 9h 4.5a 4.5 4.5, 0, 0, 0, 0 -9" transform="rotate(90,104.5,266.5)"/><rect x="118" y="262" width="9" height="9" transform="rotate(0,122.5,266.5)"/><path d="M 136 262v 9h 9v -4.5a 4.5 4.5, 0, 0, 0, -4.5 -4.5" transform="rotate(-90,140.5,266.5)"/><rect x="145" y="262" width="9" height="9" transform="rotate(0,149.5,266.5)"/><rect x="154" y="262" width="9" height="9" transform="rotate(0,158.5,266.5)"/><rect x="163" y="262" width="9" height="9" transform="rotate(0,167.5,266.5)"/><path d="M 172 262v 9h 9v -4.5a 4.5 4.5, 0, 0, 0, -4.5 -4.5" transform="rotate(90,176.5,266.5)"/><path d="M 190 262v 9h 4.5a 4.5 4.5, 0, 0, 0, 0 -9" transform="rotate(180,194.5,266.5)"/><rect x="199" y="262" width="9" height="9" transform="rotate(0,203.5,266.5)"/><path d="M 208 262v 9h 9v -4.5a 4.5 4.5, 0, 0, 0, -4.5 -4.5" transform="rotate(90,212.5,266.5)"/><rect x="244" y="262" width="9" height="9" transform="rotate(0,248.5,266.5)"/><path d="M 262 262v 9h 4.5a 4.5 4.5, 0, 0, 0, 0 -9" transform="rotate(-90,266.5,266.5)"/><path d="M 280 262v 9h 9v -4.5a 4.5 4.5, 0, 0, 0, -4.5 -4.5" transform="rotate(180,284.5,266.5)"/><path d="M 289 262v 9h 9v -4.5a 4.5 4.5, 0, 0, 0, -4.5 -4.5" transform="rotate(90,293.5,266.5)"/><rect x="73" y="271" width="9" height="9" transform="rotate(0,77.5,275.5)"/><path d="M 109 271v 9h 4.5a 4.5 4.5, 0, 0, 0, 0 -9" transform="rotate(180,113.5,275.5)"/><path d="M 118 271v 9h 9v -4.5a 4.5 4.5, 0, 0, 0, -4.5 -4.5" transform="rotate(90,122.5,275.5)"/><path d="M 136 271v 9h 9v -4.5a 4.5 4.5, 0, 0, 0, -4.5 -4.5" transform="rotate(180,140.5,275.5)"/><rect x="145" y="271" width="9" height="9" transform="rotate(0,149.5,275.5)"/><path d="M 181 271v 9h 4.5a 4.5 4.5, 0, 0, 0, 0 -9" transform="rotate(-90,185.5,275.5)"/><rect x="199" y="271" width="9" height="9" transform="rotate(0,203.5,275.5)"/><path d="M 235 271v 9h 9v -4.5a 4.5 4.5, 0, 0, 0, -4.5 -4.5" transform="rotate(-90,239.5,275.5)"/><rect x="244" y="271" width="9" height="9" transform="rotate(0,248.5,275.5)"/><path d="M 262 271v 9h 4.5a 4.5 4.5, 0, 0, 0, 0 -9" transform="rotate(90,266.5,275.5)"/><path d="M 73 280v 9h 9v -4.5a 4.5 4.5, 0, 0, 0, -4.5 -4.5" transform="rotate(180,77.5,284.5)"/><rect x="82" y="280" width="9" height="9" transform="rotate(0,86.5,284.5)"/><path d="M 91 280v 9h 9v -4.5a 4.5 4.5, 0, 0, 0, -4.5 -4.5" transform="rotate(0,95.5,284.5)"/><rect x="145" y="280" width="9" height="9" transform="rotate(0,149.5,284.5)"/><path d="M 154 280v 9h 9v -4.5a 4.5 4.5, 0, 0, 0, -4.5 -4.5" transform="rotate(0,158.5,284.5)"/><path d="M 181 280v 9h 4.5a 4.5 4.5, 0, 0, 0, 0 -9" transform="rotate(90,185.5,284.5)"/><path d="M 199 280v 9h 9v -4.5a 4.5 4.5, 0, 0, 0, -4.5 -4.5" transform="rotate(180,203.5,284.5)"/><rect x="208" y="280" width="9" height="9" transform="rotate(0,212.5,284.5)"/><rect x="217" y="280" width="9" height="9" transform="rotate(0,221.5,284.5)"/><rect x="226" y="280" width="9" height="9" transform="rotate(0,230.5,284.5)"/><rect x="235" y="280" width="9" height="9" transform="rotate(0,239.5,284.5)"/><rect x="244" y="280" width="9" height="9" transform="rotate(0,248.5,284.5)"/><path d="M 253 280v 9h 9v -4.5a 4.5 4.5, 0, 0, 0, -4.5 -4.5" transform="rotate(0,257.5,284.5)"/><circle cx="293.5" cy="284.5" r="4.5" transform="rotate(0,293.5,284.5)"/><path d="M 91 289v 9h 4.5a 4.5 4.5, 0, 0, 0, 0 -9" transform="rotate(90,95.5,293.5)"/><path d="M 145 289v 9h 9v -4.5a 4.5 4.5, 0, 0, 0, -4.5 -4.5" transform="rotate(180,149.5,293.5)"/><rect x="154" y="289" width="9" height="9" transform="rotate(0,158.5,293.5)"/><rect x="163" y="289" width="9" height="9" transform="rotate(0,167.5,293.5)"/><path d="M 172 289v 9h 4.5a 4.5 4.5, 0, 0, 0, 0 -9" transform="rotate(0,176.5,293.5)"/><circle cx="194.5" cy="293.5" r="4.5" transform="rotate(0,194.5,293.5)"/><path d="M 208 289v 9h 4.5a 4.5 4.5, 0, 0, 0, 0 -9" transform="rotate(90,212.5,293.5)"/><path d="M 226 289v 9h 9v -4.5a 4.5 4.5, 0, 0, 0, -4.5 -4.5" transform="rotate(180,230.5,293.5)"/><path d="M 235 289v 9h 9v -4.5a 4.5 4.5, 0, 0, 0, -4.5 -4.5" transform="rotate(90,239.5,293.5)"/><path d="M 253 289v 9h 4.5a 4.5 4.5, 0, 0, 0, 0 -9" transform="rotate(90,257.5,293.5)"/><circle cx="275.5" cy="293.5" r="4.5" transform="rotate(0,275.5,293.5)"/></clipPath><clipPath id="clip-path-corners-square-color-0-0-1"><path clip-rule="evenodd" d="M 1 23.5v 18a 22.5 22.5, 0, 0, 0, 22.5 22.5h 18a 22.5 22.5, 0, 0, 0, 22.5 -22.5v -18a 22.5 22.5, 0, 0, 0, -22.5 -22.5h -18a 22.5 22.5, 0, 0, 0, -22.5 22.5M 23.5 10h 18a 13.5 13.5, 0, 0, 1, 13.5 13.5v 18a 13.5 13.5, 0, 0, 1, -13.5 13.5h -18a 13.5 13.5, 0, 0, 1, -13.5 -13.5v -18a 13.5 13.5, 0, 0, 1, 13.5 -13.5" transform="rotate(0,32.5,32.5)"/></clipPath><clipPath id="clip-path-corners-dot-color-0-0-1"><circle cx="32.5" cy="32.5" r="13.5" transform="rotate(0,32.5,32.5)"/></clipPath><clipPath id="clip-path-corners-square-color-1-0-1"><path clip-rule="evenodd" d="M 235 23.5v 18a 22.5 22.5, 0, 0, 0, 22.5 22.5h 18a 22.5 22.5, 0, 0, 0, 22.5 -22.5v -18a 22.5 22.5, 0, 0, 0, -22.5 -22.5h -18a 22.5 22.5, 0, 0, 0, -22.5 22.5M 257.5 10h 18a 13.5 13.5, 0, 0, 1, 13.5 13.5v 18a 13.5 13.5, 0, 0, 1, -13.5 13.5h -18a 13.5 13.5, 0, 0, 1, -13.5 -13.5v -18a 13.5 13.5, 0, 0, 1, 13.5 -13.5" transform="rotate(90,266.5,32.5)"/></clipPath><clipPath id="clip-path-corners-dot-color-1-0-1"><circle cx="266.5" cy="32.5" r="13.5" transform="rotate(90,266.5,32.5)"/></clipPath><clipPath id="clip-path-corners-square-color-0-1-1"><path clip-rule="evenodd" d="M 1 257.5v 18a 22.5 22.5, 0, 0, 0, 22.5 22.5h 18a 22.5 22.5, 0, 0, 0, 22.5 -22.5v -18a 22.5 22.5, 0, 0, 0, -22.5 -22.5h -18a 22.5 22.5, 0, 0, 0, -22.5 22.5M 23.5 244h 18a 13.5 13.5, 0, 0, 1, 13.5 13.5v 18a 13.5 13.5, 0, 0, 1, -13.5 13.5h -18a 13.5 13.5, 0, 0, 1, -13.5 -13.5v -18a 13.5 13.5, 0, 0, 1, 13.5 -13.5" transform="rotate(-90,32.5,266.5)"/></clipPath><clipPath id="clip-path-corners-dot-color-0-1-1"><circle cx="32.5" cy="266.5" r="13.5" transform="rotate(-90,32.5,266.5)"/></clipPath></defs><rect x="0" y="0" height="300" width="300" clip-path="url('#clip-path-background-color-1')" fill="#e9ebee"/><rect x="0" y="0" height="300" width="300" clip-path="url('#clip-path-dot-color-1')" fill="#4267b2"/><rect x="1" y="1" height="63" width="63" clip-path="url('#clip-path-corners-square-color-0-0-1')" fill="#4267b2"/><rect x="19" y="19" height="27" width="27" clip-path="url('#clip-path-corners-dot-color-0-0-1')" fill="#4267b2"/><rect x="235" y="1" height="63" width="63" clip-path="url('#clip-path-corners-square-color-1-0-1')" fill="#4267b2"/><rect x="253" y="19" height="27" width="27" clip-path="url('#clip-path-corners-dot-color-1-0-1')" fill="#4267b2"/><rect x="1" y="235" height="63" width="63" clip-path="url('#clip-path-corners-square-color-0-1-1')" fill="#4267b2"/><rect x="19" y="253" height="27" width="27" clip-path="url('#clip-path-corners-dot-color-0-1-1')" fill="#4267b2"/></svg>