<?xml version="1.0" standalone="no"?>
<svg width="256" height="256" xmlns:xlink="http://www.w3.org/1999/xlink" viewBox="0 0 256 256" xmlns="http://www.w3.org/2000/svg"><defs><clipPath id="clip-path-background-color-3"><rect x="0" y="0" width="256" height="256"/></clipPath><clipPath id="clip-path-dot-color-3"><circle cx="108" cy="8" r="5" transform="rotate(0,108,8)"/><circle cx="138" cy="8" r="5" transform="rotate(0,138,8)"/><circle cx="148" cy="8" r="5" transform="rotate(0,148,8)"/><circle cx="158" cy="8" r="5" transform="rotate(0,158,8)"/><circle cx="98" cy="18" r="5" transform="rotate(0,98,18)"/><circle cx="108" cy="18" r="5" transform="rotate(0,108,18)"/><circle cx="118" cy="18" r="5" transform="rotate(0,118,18)"/><circle cx="128" cy="18" r="5" transform="rotate(0,128,18)"/><circle cx="158" cy="18" r="5" transform="rotate(0,158,18)"/><circle cx="118" cy="28" r="5" transform="rotate(0,118,28)"/><circle cx="138" cy="28" r="5" transform="rotate(0,138,28)"/><circle cx="88" cy="38" r="5" transform="rotate(0,88,38)"/><circle cx="98" cy="38" r="5" transform="rotate(0,98,38)"/><circle cx="118" cy="38" r="5" transform="rotate(0,118,38)"/><circle cx="158" cy="38" r="5" transform="rotate(0,158,38)"/><circle cx="98" cy="48" r="5" transform="rotate(0,98,48)"/><circle cx="158" cy="48" r="5" transform="rotate(0,158,48)"/><circle cx="168" cy="48" r="5" transform="rotate(0,168,48)"/><circle cx="88" cy="58" r="5" transform="rotate(0,88,58)"/><circle cx="108" cy="58" r="5" transform="rotate(0,108,58)"/><circle cx="118" cy="58" r="5" transform="rotate(0,118,58)"/><circle cx="128" cy="58" r="5" transform="rotate(0,128,58)"/><circle cx="138" cy="58" r="5" transform="rotate(0,138,58)"/><circle cx="148" cy="58" r="5" transform="rotate(0,148,58)"/><circle cx="168" cy="58" r="5" transform="rotate(0,168,58)"/><circle cx="88" cy="68" r="5" transform="rotate(0,88,68)"/><circle cx="108" cy="68" r="5" transform="rotate(0,108,68)"/><circle cx="128" cy="68" r="5" transform="rotate(0,128,68)"/><circle cx="148" cy="68" r="5" transform="rotate(0,148,68)"/><circle cx="168" cy="68" r="5" transform="rotate(0,168,68)"/><circle cx="88" cy="78" r="5" transform="rotate(0,88,78)"/><circle cx="98" cy="78" r="5" transform="rotate(0,98,78)"/><circle cx="108" cy="78" r="5" transform="rotate(0,108,78)"/><circle cx="138" cy="78" r="5" transform="rotate(0,138,78)"/><circle cx="18" cy="88" r="5" transform="rotate(0,18,88)"/><circle cx="28" cy="88" r="5" transform="rotate(0,28,88)"/><circle cx="68" cy="88" r="5" transform="rotate(0,68,88)"/><circle cx="138" cy="88" r="5" transform="rotate(0,138,88)"/><circle cx="158" cy="88" r="5" transform="rotate(0,158,88)"/><circle cx="168" cy="88" r="5" transform="rotate(0,168,88)"/><circle cx="188" cy="88" r="5" transform="rotate(0,188,88)"/><circle cx="198" cy="88" r="5" transform="rotate(0,198,88)"/><circle cx="218" cy="88" r="5" transform="rotate(0,218,88)"/><circle cx="18" cy="98" r="5" transform="rotate(0,18,98)"/><circle cx="28" cy="98" r="5" transform="rotate(0,28,98)"/><circle cx="88" cy="98" r="5" transform="rotate(0,88,98)"/><circle cx="108" cy="98" r="5" transform="rotate(0,108,98)"/><circle cx="128" cy="98" r="5" transform="rotate(0,128,98)"/><circle cx="158" cy="98" r="5" transform="rotate(0,158,98)"/><circle cx="188" cy="98" r="5" transform="rotate(0,188,98)"/><circle cx="198" cy="98" r="5" transform="rotate(0,198,98)"/><circle cx="218" cy="98" r="5" transform="rotate(0,218,98)"/><circle cx="248" cy="98" r="5" transform="rotate(0,248,98)"/><circle cx="28" cy="108" r="5" transform="rotate(0,28,108)"/><circle cx="38" cy="108" r="5" transform="rotate(0,38,108)"/><circle cx="68" cy="108" r="5" transform="rotate(0,68,108)"/><circle cx="88" cy="108" r="5" transform="rotate(0,88,108)"/><circle cx="98" cy="108" r="5" transform="rotate(0,98,108)"/><circle cx="108" cy="108" r="5" transform="rotate(0,108,108)"/><circle cx="128" cy="108" r="5" transform="rotate(0,128,108)"/><circle cx="138" cy="108" r="5" transform="rotate(0,138,108)"/><circle cx="148" cy="108" r="5" transform="rotate(0,148,108)"/><circle cx="158" cy="108" r="5" transform="rotate(0,158,108)"/><circle cx="168" cy="108" r="5" transform="rotate(0,168,108)"/><circle cx="218" cy="108" r="5" transform="rotate(0,218,108)"/><circle cx="228" cy="108" r="5" transform="rotate(0,228,108)"/><circle cx="248" cy="108" r="5" transform="rotate(0,248,108)"/><circle cx="8" cy="118" r="5" transform="rotate(0,8,118)"/><circle cx="18" cy="118" r="5" transform="rotate(0,18,118)"/><circle cx="48" cy="118" r="5" transform="rotate(0,48,118)"/><circle cx="78" cy="118" r="5" transform="rotate(0,78,118)"/><circle cx="108" cy="118" r="5" transform="rotate(0,108,118)"/><circle cx="118" cy="118" r="5" transform="rotate(0,118,118)"/><circle cx="128" cy="118" r="5" transform="rotate(0,128,118)"/><circle cx="148" cy="118" r="5" transform="rotate(0,148,118)"/><circle cx="168" cy="118" r="5" transform="rotate(0,168,118)"/><circle cx="178" cy="118" r="5" transform="rotate(0,178,118)"/><circle cx="188" cy="118" r="5" transform="rotate(0,188,118)"/><circle cx="218" cy="118" r="5" transform="rotate(0,218,118)"/><circle cx="8" cy="128" r="5" transform="rotate(0,8,128)"/><circle cx="28" cy="128" r="5" transform="rotate(0,28,128)"/><circle cx="38" cy="128" r="5" transform="rotate(0,38,128)"/><circle cx="68" cy="128" r="5" transform="rotate(0,68,128)"/><circle cx="78" cy="128" r="5" transform="rotate(0,78,128)"/><circle cx="88" cy="128" r="5" transform="rotate(0,88,128)"/><circle cx="118" cy="128" r="5" transform="rotate(0,118,128)"/><circle cx="138" cy="128" r="5" transform="rotate(0,138,128)"/><circle cx="148" cy="128" r="5" transform="rotate(0,148,128)"/><circle cx="158" cy="128" r="5" transform="rotate(0,158,128)"/><circle cx="188" cy="128" r="5" transform="rotate(0,188,128)"/><circle cx="198" cy="128" r="5" transform="rotate(0,198,128)"/><circle cx="218" cy="128" r="5" transform="rotate(0,218,128)"/><circle cx="238" cy="128" r="5" transform="rotate(0,238,128)"/><circle cx="248" cy="128" r="5" transform="rotate(0,248,128)"/><circle cx="18" cy="138" r="5" transform="rotate(0,18,138)"/><circle cx="28" cy="138" r="5" transform="rotate(0,28,138)"/><circle cx="48" cy="138" r="5" transform="rotate(0,48,138)"/><circle cx="58" cy="138" r="5" transform="rotate(0,58,138)"/><circle cx="118" cy="138" r="5" transform="rotate(0,118,138)"/><circle cx="138" cy="138" r="5" transform="rotate(0,138,138)"/><circle cx="148" cy="138" r="5" transform="rotate(0,148,138)"/><circle cx="158" cy="138" r="5" transform="rotate(0,158,138)"/><circle cx="168" cy="138" r="5" transform="rotate(0,168,138)"/><circle cx="188" cy="138" r="5" transform="rotate(0,188,138)"/><circle cx="198" cy="138" r="5" transform="rotate(0,198,138)"/><circle cx="238" cy="138" r="5" transform="rotate(0,238,138)"/><circle cx="248" cy="138" r="5" transform="rotate(0,248,138)"/><circle cx="8" cy="148" r="5" transform="rotate(0,8,148)"/><circle cx="18" cy="148" r="5" transform="rotate(0,18,148)"/><circle cx="28" cy="148" r="5" transform="rotate(0,28,148)"/><circle cx="48" cy="148" r="5" transform="rotate(0,48,148)"/><circle cx="58" cy="148" r="5" transform="rotate(0,58,148)"/><circle cx="68" cy="148" r="5" transform="rotate(0,68,148)"/><circle cx="98" cy="148" r="5" transform="rotate(0,98,148)"/><circle cx="138" cy="148" r="5" transform="rotate(0,138,148)"/><circle cx="148" cy="148" r="5" transform="rotate(0,148,148)"/><circle cx="158" cy="148" r="5" transform="rotate(0,158,148)"/><circle cx="168" cy="148" r="5" transform="rotate(0,168,148)"/><circle cx="198" cy="148" r="5" transform="rotate(0,198,148)"/><circle cx="208" cy="148" r="5" transform="rotate(0,208,148)"/><circle cx="228" cy="148" r="5" transform="rotate(0,228,148)"/><circle cx="248" cy="148" r="5" transform="rotate(0,248,148)"/><circle cx="28" cy="158" r="5" transform="rotate(0,28,158)"/><circle cx="78" cy="158" r="5" transform="rotate(0,78,158)"/><circle cx="118" cy="158" r="5" transform="rotate(0,118,158)"/><circle cx="128" cy="158" r="5" transform="rotate(0,128,158)"/><circle cx="138" cy="158" r="5" transform="rotate(0,138,158)"/><circle cx="158" cy="158" r="5" transform="rotate(0,158,158)"/><circle cx="168" cy="158" r="5" transform="rotate(0,168,158)"/><circle cx="188" cy="158" r="5" transform="rotate(0,188,158)"/><circle cx="218" cy="158" r="5" transform="rotate(0,218,158)"/><circle cx="238" cy="158" r="5" transform="rotate(0,238,158)"/><circle cx="8" cy="168" r="5" transform="rotate(0,8,168)"/><circle cx="18" cy="168" r="5" transform="rotate(0,18,168)"/><circle cx="28" cy="168" r="5" transform="rotate(0,28,168)"/><circle cx="58" cy="168" r="5" transform="rotate(0,58,168)"/><circle cx="68" cy="168" r="5" transform="rotate(0,68,168)"/><circle cx="98" cy="168" r="5" transform="rotate(0,98,168)"/><circle cx="138" cy="168" r="5" transform="rotate(0,138,168)"/><circle cx="168" cy="168" r="5" transform="rotate(0,168,168)"/><circle cx="178" cy="168" r="5" transform="rotate(0,178,168)"/><circle cx="188" cy="168" r="5" transform="rotate(0,188,168)"/><circle cx="198" cy="168" r="5" transform="rotate(0,198,168)"/><circle cx="208" cy="168" r="5" transform="rotate(0,208,168)"/><circle cx="248" cy="168" r="5" transform="rotate(0,248,168)"/><circle cx="88" cy="178" r="5" transform="rotate(0,88,178)"/><circle cx="118" cy="178" r="5" transform="rotate(0,118,178)"/><circle cx="138" cy="178" r="5" transform="rotate(0,138,178)"/><circle cx="148" cy="178" r="5" transform="rotate(0,148,178)"/><circle cx="168" cy="178" r="5" transform="rotate(0,168,178)"/><circle cx="208" cy="178" r="5" transform="rotate(0,208,178)"/><circle cx="218" cy="178" r="5" transform="rotate(0,218,178)"/><circle cx="238" cy="178" r="5" transform="rotate(0,238,178)"/><circle cx="98" cy="188" r="5" transform="rotate(0,98,188)"/><circle cx="108" cy="188" r="5" transform="rotate(0,108,188)"/><circle cx="168" cy="188" r="5" transform="rotate(0,168,188)"/><circle cx="188" cy="188" r="5" transform="rotate(0,188,188)"/><circle cx="208" cy="188" r="5" transform="rotate(0,208,188)"/><circle cx="218" cy="188" r="5" transform="rotate(0,218,188)"/><circle cx="228" cy="188" r="5" transform="rotate(0,228,188)"/><circle cx="248" cy="188" r="5" transform="rotate(0,248,188)"/><circle cx="118" cy="198" r="5" transform="rotate(0,118,198)"/><circle cx="138" cy="198" r="5" transform="rotate(0,138,198)"/><circle cx="148" cy="198" r="5" transform="rotate(0,148,198)"/><circle cx="158" cy="198" r="5" transform="rotate(0,158,198)"/><circle cx="168" cy="198" r="5" transform="rotate(0,168,198)"/><circle cx="208" cy="198" r="5" transform="rotate(0,208,198)"/><circle cx="218" cy="198" r="5" transform="rotate(0,218,198)"/><circle cx="118" cy="208" r="5" transform="rotate(0,118,208)"/><circle cx="128" cy="208" r="5" transform="rotate(0,128,208)"/><circle cx="138" cy="208" r="5" transform="rotate(0,138,208)"/><circle cx="148" cy="208" r="5" transform="rotate(0,148,208)"/><circle cx="158" cy="208" r="5" transform="rotate(0,158,208)"/><circle cx="168" cy="208" r="5" transform="rotate(0,168,208)"/><circle cx="178" cy="208" r="5" transform="rotate(0,178,208)"/><circle cx="188" cy="208" r="5" transform="rotate(0,188,208)"/><circle cx="198" cy="208" r="5" transform="rotate(0,198,208)"/><circle cx="208" cy="208" r="5" transform="rotate(0,208,208)"/><circle cx="218" cy="208" r="5" transform="rotate(0,218,208)"/><circle cx="238" cy="208" r="5" transform="rotate(0,238,208)"/><circle cx="248" cy="208" r="5" transform="rotate(0,248,208)"/><circle cx="118" cy="218" r="5" transform="rotate(0,118,218)"/><circle cx="158" cy="218" r="5" transform="rotate(0,158,218)"/><circle cx="178" cy="218" r="5" transform="rotate(0,178,218)"/><circle cx="208" cy="218" r="5" transform="rotate(0,208,218)"/><circle cx="218" cy="218" r="5" transform="rotate(0,218,218)"/><circle cx="238" cy="218" r="5" transform="rotate(0,238,218)"/><circle cx="88" cy="228" r="5" transform="rotate(0,88,228)"/><circle cx="98" cy="228" r="5" transform="rotate(0,98,228)"/><circle cx="118" cy="228" r="5" transform="rotate(0,118,228)"/><circle cx="128" cy="228" r="5" transform="rotate(0,128,228)"/><circle cx="168" cy="228" r="5" transform="rotate(0,168,228)"/><circle cx="198" cy="228" r="5" transform="rotate(0,198,228)"/><circle cx="208" cy="228" r="5" transform="rotate(0,208,228)"/><circle cx="228" cy="228" r="5" transform="rotate(0,228,228)"/><circle cx="238" cy="228" r="5" transform="rotate(0,238,228)"/><circle cx="248" cy="228" r="5" transform="rotate(0,248,228)"/><circle cx="88" cy="238" r="5" transform="rotate(0,88,238)"/><circle cx="98" cy="238" r="5" transform="rotate(0,98,238)"/><circle cx="108" cy="238" r="5" transform="rotate(0,108,238)"/><circle cx="118" cy="238" r="5" transform="rotate(0,118,238)"/><circle cx="128" cy="238" r="5" transform="rotate(0,128,238)"/><circle cx="148" cy="238" r="5" transform="rotate(0,148,238)"/><circle cx="168" cy="238" r="5" transform="rotate(0,168,238)"/><circle cx="178" cy="238" r="5" transform="rotate(0,178,238)"/><circle cx="218" cy="238" r="5" transform="rotate(0,218,238)"/><circle cx="98" cy="248" r="5" transform="rotate(0,98,248)"/><circle cx="138" cy="248" r="5" transform="rotate(0,138,248)"/><circle cx="148" cy="248" r="5" transform="rotate(0,148,248)"/><circle cx="168" cy="248" r="5" transform="rotate(0,168,248)"/><circle cx="178" cy="248" r="5" transform="rotate(0,178,248)"/><circle cx="188" cy="248" r="5" transform="rotate(0,188,248)"/><circle cx="208" cy="248" r="5" transform="rotate(0,208,248)"/><circle cx="218" cy="248" r="5" transform="rotate(0,218,248)"/><circle cx="248" cy="248" r="5" transform="rotate(0,248,248)"/><circle cx="8" cy="8" r="5" transform="rotate(0,8,8)"/><circle cx="18" cy="8" r="5" transform="rotate(0,18,8)"/><circle cx="28" cy="8" r="5" transform="rotate(0,28,8)"/><circle cx="38" cy="8" r="5" transform="rotate(0,38,8)"/><circle cx="48" cy="8" r="5" transform="rotate(0,48,8)"/><circle cx="58" cy="8" r="5" transform="rotate(0,58,8)"/><circle cx="68" cy="8" r="5" transform="rotate(0,68,8)"/><circle cx="8" cy="18" r="5" transform="rotate(0,8,18)"/><circle cx="68" cy="18" r="5" transform="rotate(0,68,18)"/><circle cx="8" cy="28" r="5" transform="rotate(0,8,28)"/><circle cx="68" cy="28" r="5" transform="rotate(0,68,28)"/><circle cx="8" cy="38" r="5" transform="rotate(0,8,38)"/><circle cx="68" cy="38" r="5" transform="rotate(0,68,38)"/><circle cx="8" cy="48" r="5" transform="rotate(0,8,48)"/><circle cx="68" cy="48" r="5" transform="rotate(0,68,48)"/><circle cx="8" cy="58" r="5" transform="rotate(0,8,58)"/><circle cx="68" cy="58" r="5" transform="rotate(0,68,58)"/><circle cx="8" cy="68" r="5" transform="rotate(0,8,68)"/><circle cx="18" cy="68" r="5" transform="rotate(0,18,68)"/><circle cx="28" cy="68" r="5" transform="rotate(0,28,68)"/><circle cx="38" cy="68" r="5" transform="rotate(0,38,68)"/><circle cx="48" cy="68" r="5" transform="rotate(0,48,68)"/><circle cx="58" cy="68" r="5" transform="rotate(0,58,68)"/><circle cx="68" cy="68" r="5" transform="rotate(0,68,68)"/><circle cx="28" cy="28" r="5" transform="rotate(0,28,28)"/><circle cx="38" cy="28" r="5" transform="rotate(0,38,28)"/><circle cx="48" cy="28" r="5" transform="rotate(0,48,28)"/><circle cx="28" cy="38" r="5" transform="rotate(0,28,38)"/><circle cx="38" cy="38" r="5" transform="rotate(0,38,38)"/><circle cx="48" cy="38" r="5" transform="rotate(0,48,38)"/><circle cx="28" cy="48" r="5" transform="rotate(0,28,48)"/><circle cx="38" cy="48" r="5" transform="rotate(0,38,48)"/><circle cx="48" cy="48" r="5" transform="rotate(0,48,48)"/><circle cx="188" cy="8" r="5" transform="rotate(0,188,8)"/><circle cx="198" cy="8" r="5" transform="rotate(0,198,8)"/><circle cx="208" cy="8" r="5" transform="rotate(0,208,8)"/><circle cx="218" cy="8" r="5" transform="rotate(0,218,8)"/><circle cx="228" cy="8" r="5" transform="rotate(0,228,8)"/><circle cx="238" cy="8" r="5" transform="rotate(0,238,8)"/><circle cx="248" cy="8" r="5" transform="rotate(0,248,8)"/><circle cx="188" cy="18" r="5" transform="rotate(0,188,18)"/><circle cx="248" cy="18" r="5" transform="rotate(0,248,18)"/><circle cx="188" cy="28" r="5" transform="rotate(0,188,28)"/><circle cx="248" cy="28" r="5" transform="rotate(0,248,28)"/><circle cx="188" cy="38" r="5" transform="rotate(0,188,38)"/><circle cx="248" cy="38" r="5" transform="rotate(0,248,38)"/><circle cx="188" cy="48" r="5" transform="rotate(0,188,48)"/><circle cx="248" cy="48" r="5" transform="rotate(0,248,48)"/><circle cx="188" cy="58" r="5" transform="rotate(0,188,58)"/><circle cx="248" cy="58" r="5" transform="rotate(0,248,58)"/><circle cx="188" cy="68" r="5" transform="rotate(0,188,68)"/><circle cx="198" cy="68" r="5" transform="rotate(0,198,68)"/><circle cx="208" cy="68" r="5" transform="rotate(0,208,68)"/><circle cx="218" cy="68" r="5" transform="rotate(0,218,68)"/><circle cx="228" cy="68" r="5" transform="rotate(0,228,68)"/><circle cx="238" cy="68" r="5" transform="rotate(0,238,68)"/><circle cx="248" cy="68" r="5" transform="rotate(0,248,68)"/><circle cx="208" cy="28" r="5" transform="rotate(0,208,28)"/><circle cx="218" cy="28" r="5" transform="rotate(0,218,28)"/><circle cx="228" cy="28" r="5" transform="rotate(0,228,28)"/><circle cx="208" cy="38" r="5" transform="rotate(0,208,38)"/><circle cx="218" cy="38" r="5" transform="rotate(0,218,38)"/><circle cx="228" cy="38" r="5" transform="rotate(0,228,38)"/><circle cx="208" cy="48" r="5" transform="rotate(0,208,48)"/><circle cx="218" cy="48" r="5" transform="rotate(0,218,48)"/><circle cx="228" cy="48" r="5" transform="rotate(0,228,48)"/><circle cx="8" cy="188" r="5" transform="rotate(0,8,188)"/><circle cx="18" cy="188" r="5" transform="rotate(0,18,188)"/><circle cx="28" cy="188" r="5" transform="rotate(0,28,188)"/><circle cx="38" cy="188" r="5" transform="rotate(0,38,188)"/><circle cx="48" cy="188" r="5" transform="rotate(0,48,188)"/><circle cx="58" cy="188" r="5" transform="rotate(0,58,188)"/><circle cx="68" cy="188" r="5" transform="rotate(0,68,188)"/><circle cx="8" cy="198" r="5" transform="rotate(0,8,198)"/><circle cx="68" cy="198" r="5" transform="rotate(0,68,198)"/><circle cx="8" cy="208" r="5" transform="rotate(0,8,208)"/><circle cx="68" cy="208" r="5" transform="rotate(0,68,208)"/><circle cx="8" cy="218" r="5" transform="rotate(0,8,218)"/><circle cx="68" cy="218" r="5" transform="rotate(0,68,218)"/><circle cx="8" cy="228" r="5" transform="rotate(0,8,228)"/><circle cx="68" cy="228" r="5" transform="rotate(0,68,228)"/><circle cx="8" cy="238" r="5" transform="rotate(0,8,238)"/><circle cx="68" cy="238" r="5" transform="rotate(0,68,238)"/><circle cx="8" cy="248" r="5" transform="rotate(0,8,248)"/><circle cx="18" cy="248" r="5" transform="rotate(0,18,248)"/><circle cx="28" cy="248" r="5" transform="rotate(0,28,248)"/><circle cx="38" cy="248" r="5" transform="rotate(0,38,248)"/><circle cx="48" cy="248" r="5" transform="rotate(0,48,248)"/><circle cx="58" cy="248" r="5" transform="rotate(0,58,248)"/><circle cx="68" cy="248" r="5" transform="rotate(0,68,248)"/><circle cx="28" cy="208" r="5" transform="rotate(0,28,208)"/><circle cx="38" cy="208" r="5" transform="rotate(0,38,208)"/><circle cx="48" cy="208" r="5" transform="rotate(0,48,208)"/><circle cx="28" cy="218" r="5" transform="rotate(0,28,218)"/><circle cx="38" cy="218" r="5" transform="rotate(0,38,218)"/><circle cx="48" cy="218" r="5" transform="rotate(0,48,218)"/><circle cx="28" cy="228" r="5" transform="rotate(0,28,228)"/><circle cx="38" cy="228" r="5" transform="rotate(0,38,228)"/><circle cx="48" cy="228" r="5" transform="rotate(0,48,228)"/></clipPath></defs><rect x="0" y="0" height="256" width="256" clip-path="url('#clip-path-background-color-3')" fill="#fff"/><rect x="0" y="0" height="256" width="256" clip-path="url('#clip-path-dot-color-3')" fill="#DC2626"/></svg>